<?xml version="1.0" encoding="utf-8"?>
<!-- Generator: Adobe Illustrator 24.0.0, SVG Export Plug-In . SVG Version: 6.00 Build 0)  -->
<svg version="1.1" xmlns="http://www.w3.org/2000/svg" xmlns:xlink="http://www.w3.org/1999/xlink" x="0px" y="0px"
	 viewBox="0 0 838 520" style="enable-background:new 0 0 838 520;" xml:space="preserve">
<style type="text/css">
	.st0{fill:#FFFFFF;}
	.st1{fill:#F6F7FA;}
	.st2{fill:#ECE4FA;}
	.st3{fill:#FFFFFF;stroke:#0F22D3;stroke-width:2.037;stroke-miterlimit:10;}
	.st4{fill:#98B2D8;}
	.st5{fill:#B1C3E8;}
	.st6{fill:#B7CAE5;}
	.st7{fill:#97B3D1;}
	.st8{fill:#CED9EA;}
	.st9{fill:#B6C5DD;}
	.st10{fill:#5D7CA0;}
	.st11{fill:#799CBF;}
	.st12{fill:#F2F4F9;}
	.st13{fill:#C1CFE5;}
	.st14{fill:url(#SVGID_1_);}
	.st15{opacity:0.22;fill:#1F395E;}
	.st16{fill:url(#SVGID_2_);}
	.st17{fill:url(#SVGID_3_);}
	.st18{fill:#1F395E;}
	.st19{fill:#764BCB;}
	.st20{fill:#5D21D2;}
	.st21{fill:#FEB19E;}
	.st22{fill:#FF856A;}
	.st23{fill:url(#SVGID_4_);}
	.st24{opacity:0.6;fill:#9ABCED;}
	.st25{fill:#9ABCED;}
	.st26{fill:#C1C8D3;}
	.st27{fill:url(#SVGID_5_);}
	.st28{fill:url(#SVGID_6_);}
	.st29{fill:#4F7EB7;}
	.st30{opacity:0.71;fill:#7CA6D8;}
	.st31{fill:#EA9BA1;}
	.st32{opacity:0.6;fill:#764BCB;}
	.st33{opacity:0.5;}
	.st34{fill:#7CA6D8;}
	.st35{fill:#E83F54;}
	.st36{opacity:0.7;fill:#5D21D2;}
	.st37{opacity:0.5;fill:#5D21D2;}
	.st38{opacity:0.6;fill:#E4CD75;}
	.st39{fill:#DCB20C;}
	.st40{opacity:0.5;fill:#E3BC24;}
	.st41{opacity:0.71;fill:#E3BC24;}
	.st42{fill:#E3BC24;}
</style>
<g id="BACKGROUND">
	<rect x="49" y="20" class="st0" width="750" height="500"/>
</g>
<g id="OBJECTS">
	<rect x="0" class="st1" width="838" height="520"/>
	<g>
		<g>
			<path class="st2" d="M730.33,289.04c0.16,23.7-1.35,45.42-4.14,64.64c-0.2,1.44-0.42,2.89-0.65,4.29
				c-1.47,9.36-3.25,18.09-5.27,26.14c-0.36,1.38-0.71,2.74-1.07,4.08c-7.77,28.68-18.81,48.06-30.59,55.22H193.97
				c0,0-42.16-38.6-50.63-93.73c-0.22-1.4-0.42-2.8-0.58-4.23c-3.29-27.44,2-58.69,24.78-91.2c10.39-14.8,24.05-25.1,39.73-32.19
				c1.23-0.54,2.44-1.07,3.69-1.57c23.25-9.61,50.57-12.62,78-13.08c1.39-0.02,2.78-0.04,4.16-0.04
				c16.33-0.13,32.63,0.59,48.07,1.24c1.47,0.08,2.91,0.15,4.36,0.21c24.94,1.11,47.42,1.93,63.73-1.23h0.02
				c1.51-0.29,2.93-0.63,4.32-1h0.02c18.06-4.67,26.96-15.49,20.56-38.77c-12.41-45.15,0.3-78.24,27.95-96.52
				c1.41-0.94,2.87-1.84,4.36-2.7c15.64-8.96,35.4-13.65,57.76-13.58c1.57,0,3.15,0.04,4.76,0.08c19.01,0.61,39.76,4.56,61.31,12.12
				c11.6,4.06,22.4,9.08,32.41,14.88c1.23,0.71,2.46,1.44,3.65,2.2c19.62,11.97,36.14,27.09,49.81,44.17
				c0.93,1.13,1.82,2.28,2.72,3.45C714.48,178.16,729.98,237.88,730.33,289.04z"/>
			<path class="st0" d="M720.26,384.11c-0.36,1.38-0.71,2.74-1.07,4.08c-7.31-2.76-15.01-6.3-22.88-10.8
				c-36.28-20.81-82.46-67.15-96.46-169.88c-6.03-44.29,1.67-86.47,22.9-125.42c1.23,0.71,2.46,1.44,3.65,2.2
				c-18.63,34.16-29.1,75-22.62,122.62c13.76,100.91,58.83,146.36,94.24,166.7C705.64,377.98,713.13,381.44,720.26,384.11z"/>
			<path class="st0" d="M726.19,353.68c-0.2,1.44-0.42,2.89-0.65,4.29c-22.92-11.37-51.8-36.09-65.28-89.76
				c-13.02-51.97-7.83-98.11,15.96-139.76c0.93,1.13,1.82,2.28,2.72,3.45c-22.62,40.36-27.43,85-14.83,135.24
				C676.99,318.49,704.29,342.48,726.19,353.68z"/>
			<path class="st0" d="M509.9,142.73c1.92,68.2-5.43,112.26-23.85,142.9c-19.29,32.11-51.46,51.51-104.33,62.92
				c-9.85,2.14-19.58,3.2-29.14,3.2c-29.75,0-57.78-10.24-82.34-30.25c-28.56-23.3-50.43-58.38-62.98-99.45
				c1.23-0.54,2.44-1.07,3.69-1.57c12.29,40.38,33.72,74.87,61.73,97.71c31.48,25.68,68.92,34.75,108.25,26.27
				c98.32-21.25,128.69-70.25,125-201.62c-1.05-37.3,5.11-66.73,18.34-87.85c1.57,0,3.15,0.04,4.76,0.08
				C515.28,75.6,508.85,104.99,509.9,142.73z"/>
			<path class="st0" d="M387.22,283.85c-4.08,0.71-8.31,1.09-12.61,1.09c-31.7,0-67.99-20.28-85.65-77.53
				c1.39-0.02,2.78-0.04,4.16-0.04c19.47,61.46,61.19,77.95,93.44,72.36c43.57-7.54,85.48-54.9,77.37-127.85
				c-3.49-31.29-3.65-58-1.78-80.59c1.41-0.94,2.87-1.84,4.36-2.7c-2.16,23-2.24,50.43,1.37,82.81
				C476.27,226.92,432.58,276,387.22,283.85z"/>
			<path class="st0" d="M413.63,206.57c-1.53,7.35-4.2,14.84-8.78,21.14c-6.09,8.41-14.63,13.4-25.39,14.8
				c-1.29,0.17-2.56,0.25-3.81,0.25c-6.68,0-12.81-2.41-18.24-7.22c-7.18-6.36-12.41-16.24-16.22-26.94
				c1.47,0.08,2.91,0.15,4.36,0.21c3.53,9.46,8.21,18.02,14.41,23.53c5.55,4.92,11.95,6.95,18.99,6.03
				c9.67-1.26,17.31-5.69,22.74-13.17c3.77-5.19,6.14-11.41,7.59-17.62h0.02C410.81,207.28,412.24,206.95,413.63,206.57z"/>
			<path class="st0" d="M259.7,443.42h-4.32c-17.78-42.99-43.41-71.65-76.28-85.24c-11.93-4.94-24.05-7.51-35.76-8.5
				c-0.22-1.4-0.42-2.8-0.58-4.23c12.35,0.94,25.16,3.62,37.78,8.83C214.86,368.48,241.46,398.41,259.7,443.42z"/>
		</g>
		<g>
			<polygon class="st3" points="532.84,521 532.84,521 532.84,521 532.84,521 			"/>
			<g>
				<g>
					<g>
						<path class="st4" d="M173.9,313.84l-12.25,13.33l-5.11-7.93l-1.7-2.66c-5.45,1.44-13.5-9.82-16.73-15.82
							c-3.21-6.03,9.67-15.32,9.67-15.32c-2.1-6.66-10.55-10.84-10.78-12.68c-0.24-1.82,1.86-3.79,9.53,0
							c7.69,3.81,14.37,17.27,14.37,17.27c1.37-3.91-4.7-14.51-3.59-15.7c1.11-1.17,7.06,0.27,11.64,10.47
							c4.6,10.21,1.86,22.25,1.86,22.25l0.06,0.1L173.9,313.84z"/>
						<path class="st5" d="M147.32,284.26c0,0,9.1,10.99,8.12,15.31c-0.98,4.32-5.57-0.69-5.57-0.69s4.21,5.14,2.85,6.84
							c-1.36,1.7-6.44-2.62-6.44-2.62s6.07,7.98,0,6.8s-13.7-13.27-7.84-14.48c0,0-0.71-8.8,4.62-5.79
							C143.06,289.63,140.67,282.29,147.32,284.26z"/>
					</g>
					<path class="st6" d="M257.92,443.49c0,0,10.25-31.61,4.86-62.78c0,0-0.02-0.06-0.04-0.21c0-0.06-0.02-0.15-0.04-0.25
						c-0.16-0.82-0.32-1.63-0.48-2.45c0,0-5.95,5.48-14.15,10.93c-9.85,6.55-22.99,13.06-33.08,10.01
						c-18.51-5.59-45.59-43.6-58.16-73.62c0,0,6.28-9.94,18.83-13c0,0,25.12,35.33,47.26,43.71c0,0,11.89-15.01,21.13-36.99
						c5.91-14.02,14.77-22.9,25.95-27.67c6.34-2.74,13.44-4.14,21.15-4.4l19.41-9.57c0,0,3.15,0.02,8.05,0.69
						c9.1,1.26,24.22,4.77,36.45,14.61c18.83,15.15,45.93,150.98,45.93,150.98H257.92z"/>
					<path class="st7" d="M262.74,380.51c-0.16-0.9-0.34-1.8-0.52-2.7c0,0-5.95,5.48-14.15,10.93l5.73-51.74
						C259.63,360.69,262.42,378.39,262.74,380.51z"/>
					<path class="st8" d="M318.6,277.9c-2.99,20.09-22.04,38.66-35.8,38.41c-11.06-0.21-12.69-16.96-12.81-25.14
						c6.34-2.74,13.44-4.14,21.15-4.4l19.41-9.57C310.55,277.21,313.7,277.23,318.6,277.9z"/>
					<path class="st7" d="M285.67,422.96c0,0,43.7-48.03,45.6-98.52l12.88,42.56l-4.96,44.31L285.67,422.96z"/>
					<path class="st4" d="M284.4,443.48h-48.94c0,0,0.12-7.06,7.68-9.42c7.56-2.35,12.39-12.3,35.06-10.99L284.4,443.48z"/>
					<path class="st9" d="M334.47,395.99c0,0-23.06,14-59.36,23.94c0,0-5.04,12.82,3.8,23.55h70.24L334.47,395.99z"/>
				</g>
				<g>
					<path class="st10" d="M248.62,249.22c0,0-10.44-15.21-9.15-25.45c1.28-10.24,10.26-7.84,10.26-7.84s-0.42-24.89,21.4-18.52
						c0,0-0.48-7.6,4.28-7.4c4.76,0.2,12.23,11.77,12.23,11.77s1.85-8.57,5.08-6.55c3.23,2.02,4.22,10.87,10.96,15.13
						c6.74,4.26,10.91,9.77,5.62,27.04c-5.29,17.27-1.32,18.49-3.21,27.36c-1.79,8.42-3.23,13.54-8.18,14.01
						c-4.95,0.47-23.89-20.63-23.89-20.63L248.62,249.22z"/>
					<path class="st4" d="M310.55,277.21c0,0-12.15,31.13-24.92,28.78c-6.34-1.17-7.75-5.25-7.81-9.98
						c-0.06-6.17,2.22-13.42-1.23-16.45l15.3-22.96l3.37-5.07C295.27,251.52,299.39,264.13,310.55,277.21z"/>
					<path class="st11" d="M277.82,296.01c-0.06-6.17,2.22-13.42-1.23-16.45l15.3-22.96c1.31,1.61,2.24,4.48,2.62,8.98
						C296.54,289.29,284.66,294.79,277.82,296.01z"/>
					<path class="st4" d="M247.13,237.12c0,0,4.14,40.09,19.63,49.12c13.47,7.84,29.82-15.88,29.49-27.61c0,0,5.87-4.73,4.89-12.39
						c-0.98-7.66-8.65-5.12-9.57,7.23c0,0-6.24-0.47-7.39-15.9c-3.92,3.42-8.14,2.37-12.58-1.8c0,0-2.2,8.59-13.54-1.45
						C258.06,234.31,253.79,240.44,247.13,237.12z"/>
				</g>
			</g>
			<g>
				<g>
					<path class="st10" d="M612.59,392.46c0,0,20,35.24,26.93,52.33H569c0,0-4.02-20.6-11.08-40.39L612.59,392.46z"/>
					<path class="st11" d="M585.09,400.31c-3.86,13.5-9.74,25.03-18.47,33.79l2.38,10.69l-85.34-1.11l9.5-61.68L585.09,400.31z"/>
				</g>
				<g>
					<path class="st11" d="M718.96,208.01c0,0,2.82-18.68,8.44-25.31c5.62-6.63,20.98-16.43,22.8-12.95
						c1.82,3.49-13.55,14.43-13.55,14.43s6.94-1.74,12.88,9.07s-13.22,19.19-13.22,19.19l-3.8,9.07l-15.2-10.12L718.96,208.01z"/>
					<path class="st4" d="M738.61,184.54c0,0-8.56,9.19-7.31,11.82c1.25,2.63,5.97-1.5,5.97-1.5s-3.85,6.19-0.87,7.79
						c2.99,1.6,7.61-3.75,7.61-3.75s-3.85,5.63-1.64,6.66c2.22,1.03,14.06-7.79,11.94-9.85c-2.12-2.06-3.28-0.38-3.28-0.38
						s2.48-4.41,0-5.82c-2.7-1.53-4.05,1.22-4.05,1.22s2.02-3.38,0.39-4.69c-1.64-1.31-5.11,0.38-5.11,0.38
						S743.42,180.79,738.61,184.54z"/>
					<path class="st4" d="M730.66,184.32c-2.6-0.79-7.89,4.93-7.89,4.93c-2.08,2.82-2.5,8.45-2.59,11.05
						c-0.27,7.25-2.86,11.1-2.86,11.1l7.71,5.13c5.97-8.12,4.02-18.53,3.05-22.21C731,189.73,732.21,184.79,730.66,184.32z"/>
				</g>
				<g>
					<path class="st6" d="M735.65,223.43c0,0-25.77,72.47-66.72,78.89c-18.32,2.87-32.15,3.16-41.83,2.62
						c-11.54-0.63-17.21-2.47-17.62-2.6c-0.02,0-0.02-0.02-0.02-0.02s-11.24,22.1-3.96,53.86c7.26,31.73,9.91,38.37,9.91,38.37
						s-55.21,42.87-100.11,3.83l-40.52-66.52l-12.69-20.85c0,0,11.66-40.42,44.52-66.69l0.02-0.02
						c12.39-9.92,27.81-17.83,46.74-20.76c9.71-1.55,20.34-1.78,31.95-0.31c0,0,8.92,2.66,23.43,8.27
						c7.81,3.01,17.25,6.89,27.77,11.66c30.07,13.61,38.34,17.67,38.34,17.67s32.03-33.37,40.3-53.61
						C715.17,207.21,731.69,208.97,735.65,223.43z"/>
					<path class="st7" d="M528.9,256.52c-0.15,16.24-3.44,31.98-4.88,44.2l25.46-5.44l39.62,41.37c0,0,5.02,12.12-5.2,14.21
						c-8.01,1.64-45.43,7.14-45.43,7.14c-8.62,12.4-12.52,31.36-16.82,49.76l-37.99-69.71L528.9,256.52z"/>
					<path class="st8" d="M585.33,260.42c-17.74-4.75-27.08-21.6-31.95-36.88c9.71-1.55,20.34-1.78,31.95-0.31
						c0,0,8.92,2.66,23.43,8.27C610.47,244.87,609.86,266.97,585.33,260.42z"/>
					<path class="st7" d="M631.92,275.24c0,0-3.81,15.74-4.82,29.7c-11.54-0.63-17.21-2.47-17.62-2.6c-0.02,0-0.02-0.02-0.02-0.02
						S619.53,284.14,631.92,275.24z"/>
				</g>
				<g>
					<path class="st12" d="M587.64,343.54l-44.25,6.78c-1.31,0.2-2.52-0.76-2.71-2.14l-9.78-71.12c-0.19-1.38,0.72-2.67,2.03-2.87
						l44.25-6.78c1.31-0.2,2.52,0.76,2.71,2.14l9.78,71.12C589.85,342.06,588.95,343.34,587.64,343.54z"/>
					<path class="st4" d="M555.44,298.27l6.77-2.79c0,0,6.44-18.84,14.45-6.98c0,0,5.53-3.49,5.37-5.41s-0.25-4.71-0.25-4.71
						s11.21,2.56,8.7,19.07c-2.51,16.51-12.09,14.42-21.51,14.59l-11.73,4.88L555.44,298.27z"/>
					<path class="st13" d="M559.8,321.29c0,0-52.77,36.88-75.56,19.09c-3.47-2.72-6.62-5.59-9.46-8.52l-12.69-20.85
						c0,0,11.66-40.42,44.52-66.69l0.02-0.02c10.89-5.17,22.28-3.29,22.86,7.37c1.39,25.39-19.17,41-21.71,52.52l47.3-10.11
						C555.09,294.08,562.78,302.7,559.8,321.29z"/>
				</g>
				<g>
					<path class="st10" d="M621.83,184.6c0,0,7.54-17.01,4.46-26.82c-3.08-9.8-11.47-5.66-11.47-5.66s-4.02-24.53-24.32-13.94
						c0,0-0.88-7.56-5.53-6.42c-4.64,1.14-9.92,13.99-9.92,13.99s-3.35-8.05-6.16-5.42c-2.81,2.63-2.21,11.52-8.07,17.04
						c-5.86,5.52-8.97,11.76-0.7,27.67c8.27,15.91,4.59,17.9,8.02,26.23c3.26,7.91,5.58,12.66,10.53,12.14
						c4.95-0.52,19.79-25.01,19.79-25.01L621.83,184.6z"/>
					<path class="st4" d="M565.99,224.39c0,0,11.67,30.36,30,25.39c6.24-1.69,6.27-8.77,5.49-13.42c-1.04-6.08-4.57-12.74-1.72-16.4
						l-19.12-19.51l-4.21-4.31C576.43,196.13,574.62,209.32,565.99,224.39z"/>
					<path class="st11" d="M601.48,236.35c-1.04-6.08-4.57-12.74-1.72-16.4l-19.12-19.51c-1,1.84-1.4,4.84-0.97,9.34
						C581.9,233.47,594.55,236.51,601.48,236.35z"/>
					<path class="st4" d="M621.14,172.42c0,0,3.08,40.2-10.53,52.14c-11.83,10.38-32.11-9.68-33.88-21.27c0,0-6.61-3.48-7.01-11.2
						c-0.4-7.72,7.59-6.75,10.69,5.2c0,0,6.04-1.7,4.43-17.08c4.46,2.59,8.42,0.71,12.04-4.26c0,0,3.69,8,13.04-4.11
						C609.9,171.83,615.19,177,621.14,172.42z"/>
				</g>
			</g>
			<g>
				<g>
					<linearGradient id="SVGID_1_" gradientUnits="userSpaceOnUse" x1="421.1019" y1="435.2659" x2="421.1019" y2="309.3244">
						<stop  offset="0" style="stop-color:#1F3A65"/>
						<stop  offset="1" style="stop-color:#294A7A"/>
					</linearGradient>
					<path class="st14" d="M524.34,421.26v0.02c-0.57,2.47-1.39,4.73-2.44,6.76c-9.57,18.48-51.04,15.45-51.04,15.45H376.2
						c-39.17,0-54.87-1.03-58.62-13.94c-0.22-0.69-0.38-1.42-0.52-2.2c-2.66-15.01,10.57-63.84,35.01-97.33
						c12.51-17.12,25.43-26.14,36.95-30.85c11-4.5,20.71-5.09,27.53-5.09c12.01,0,21.71,0.94,29.93,2.97
						c22.08,5.46,33.64,18.65,50.96,42.03C518.65,367.66,529.08,401.21,524.34,421.26z"/>
					<path class="st15" d="M357.87,409.41c10.27-17.06,13.5-40.72,16.35-64.74l8.92,48.84h77.31l14.21-48.84
						c-0.34,22.83,2.63,45.22,12.88,66.63C487.54,411.3,436.99,471.7,357.87,409.41z"/>
					<linearGradient id="SVGID_2_" gradientUnits="userSpaceOnUse" x1="349.1467" y1="445.0341" x2="349.1467" y2="411.1778">
						<stop  offset="0" style="stop-color:#1F3A65"/>
						<stop  offset="1" style="stop-color:#294A7A"/>
					</linearGradient>
					<path class="st16" d="M381.34,443.49h-5.13c-39.17,0-54.87-1.03-58.62-13.94c-2.04-10.15,0.56-20.83,12.27-24.01
						c18.36-4.98,50.31,14.65,50.31,14.65L381.34,443.49z"/>
					<linearGradient id="SVGID_3_" gradientUnits="userSpaceOnUse" x1="483.659" y1="445.0341" x2="483.659" y2="411.1778">
						<stop  offset="0" style="stop-color:#1F3A65"/>
						<stop  offset="1" style="stop-color:#294A7A"/>
					</linearGradient>
					<path class="st17" d="M524.34,421.26c0,0,0.02,0,0,0.02c-0.57,2.47-1.39,4.73-2.44,6.76c-9.57,18.48-51.04,15.45-51.04,15.45
						h-28.09l3.57-25.12c0,0,49.79-24.34,67.64-16.75C522.69,405.33,525.37,413.04,524.34,421.26z"/>
					<path class="st18" d="M446.5,297.05c-0.83,11.74-5.43,33.14-27.83,33.14c-23.61,0-28.6-21.08-29.64-31.02
						c11-4.5,20.71-5.09,27.53-5.09C428.58,294.08,438.27,295.02,446.5,297.05z"/>
				</g>
				<g>
					<path class="st0" d="M466.89,443.48H376.2c-2.19,0-3.96-1.87-3.96-4.19l0,0c0-2.31,1.78-4.19,3.96-4.19h90.69
						c2.19,0,3.96,1.87,3.96,4.19l0,0C470.86,441.61,469.08,443.48,466.89,443.48z"/>
					<path class="st19" d="M477.88,371.49l-0.34,2.18v0.02l-9.4,61.44h-92.43l-9.3-63.68c-0.46-3.12,1.84-5.94,4.82-5.94h101.83
						C476.07,365.5,478.35,368.35,477.88,371.49z"/>
					<path class="st20" d="M477.54,373.68l-9.4,61.44H376.2l31.16-3.43C439.36,428.19,466.62,405.63,477.54,373.68z"/>
				</g>
				<g>
					<g>
						<path class="st21" d="M418.29,321.29h-0.61c-3.57,0-6.52-0.77-8.92-1.9c-5.83-2.76-9.36-9.19-9.22-15.93
							c0.02-0.69,0.02-1.36,0.02-2.03c0.02-5.59-0.32-10.24-0.32-10.24v-2.51l33.3-1.57c0.12,5.07,0.67,9.57,1.33,13.17
							c0.02,0.06,0.02,0.1,0.04,0.17C435.81,311.01,428.48,321.02,418.29,321.29z"/>
						<path class="st22" d="M433.87,300.28c-13.88,17.21-28.13,7.16-34.31,1.15c0.02-5.59-0.32-10.24-0.32-10.24v-2.51l33.3-1.57
							C432.66,292.17,433.21,296.68,433.87,300.28z"/>
					</g>
					<g>
						<path class="st21" d="M389.05,271.59c0,0,10.32,30.74,27.55,30.74c17.22,0,24.38-33.1,24.38-33.1v-28.78h-53.25L389.05,271.59
							z"/>
						<path class="st21" d="M383.51,254.24c0,0-5.07,0.98-4.2,7.13c0.87,6.15,6.15,13.61,10.45,9.68L383.51,254.24z"/>
						<path class="st21" d="M444.99,251.67c0,0,5.15,0.24,5.08,6.46c-0.07,6.22-4.34,14.36-9.1,11.09L444.99,251.67z"/>
						<linearGradient id="SVGID_4_" gradientUnits="userSpaceOnUse" x1="413.5489" y1="261.6843" x2="412.1432" y2="206.8639">
							<stop  offset="0" style="stop-color:#3F2323"/>
							<stop  offset="1" style="stop-color:#5E3434"/>
						</linearGradient>
						<path class="st23" d="M444.99,251.67c0,0-1.79,10.75-4.02,17.55c0,0-4.08-0.87-5.4-12.21c0,0-8.82,1.83-14.35-6.98
							c0,0-1.32,8.72-9.83,2.53c-5.67,4.89-12.38,5.41-19.99,2.09c0,0,1.28,11.43-2.35,16.93c0,0-1.32-4.52-5.54-17.34
							c0,0-1.81,0.07-2.97,1.81c0,0-9.12-18.84-4.83-27.91c4.29-9.07,10.08-5.58,10.08-5.58s-2.15-12.38,10.57-16.92
							c12.72-4.54,12.72-10.64,14.7-9.42c1.98,1.22,2.81,5.76,2.81,5.76s21.97-2.44,27.92,22.5c0,0,15.87,0.54,6.45,28.62
							C448.24,253.1,447.62,251.94,444.99,251.67z"/>
					</g>
				</g>
			</g>
			<path class="st3" d="M465.9,287.11"/>
			<g>
				<path class="st24" d="M360.11,277.8h-83.02c-2.7,0-4.89,2.31-4.89,5.16v52.32c0,2.85,2.19,5.16,4.89,5.16h57.27l14.94,13.98
					c1.13,1.06,2.85-0.16,2.36-1.67l-4.04-12.31h12.5c2.7,0,4.89-2.31,4.89-5.16v-52.32C365,280.11,362.81,277.8,360.11,277.8z"/>
				<g>
					<path class="st25" d="M302.84,291.8h-19.13c-0.72,0-1.3-0.62-1.3-1.38l0,0c0-0.76,0.58-1.38,1.3-1.38h19.13
						c0.72,0,1.3,0.62,1.3,1.38l0,0C304.15,291.18,303.56,291.8,302.84,291.8z"/>
					<path class="st25" d="M350,303.73h-55.42c-0.72,0-1.3-0.62-1.3-1.38l0,0c0-0.76,0.58-1.38,1.3-1.38H350
						c0.72,0,1.3,0.62,1.3,1.38l0,0C351.31,303.11,350.72,303.73,350,303.73z"/>
					<path class="st25" d="M350,312.22h-66.29c-0.72,0-1.3-0.62-1.3-1.38l0,0c0-0.76,0.58-1.38,1.3-1.38H350
						c0.72,0,1.3,0.62,1.3,1.38l0,0C351.31,311.61,350.72,312.22,350,312.22z"/>
					<path class="st25" d="M350,320.71h-66.29c-0.72,0-1.3-0.62-1.3-1.38l0,0c0-0.76,0.58-1.38,1.3-1.38H350
						c0.72,0,1.3,0.62,1.3,1.38l0,0C351.31,320.1,350.72,320.71,350,320.71z"/>
					<path class="st25" d="M350,329.2h-66.29c-0.72,0-1.3-0.62-1.3-1.38l0,0c0-0.76,0.58-1.38,1.3-1.38H350
						c0.72,0,1.3,0.62,1.3,1.38l0,0C351.31,328.59,350.72,329.2,350,329.2z"/>
				</g>
			</g>
			<g>
				<path class="st26" d="M728.12,457.09H125.62c-1.22,0-2.21-0.99-2.21-2.21v-9.19c0-1.22,0.99-2.21,2.21-2.21h602.5
					c1.22,0,2.21,0.99,2.21,2.21v9.19C730.33,456.1,729.34,457.09,728.12,457.09z"/>
				<g>
					<linearGradient id="SVGID_5_" gradientUnits="userSpaceOnUse" x1="579.091" y1="426.6707" x2="604.8607" y2="426.6707">
						<stop  offset="0" style="stop-color:#1F3A65"/>
						<stop  offset="1" style="stop-color:#294A7A"/>
					</linearGradient>
					<path class="st27" d="M604.86,409.93h-25.77v23.82c0,5.34,4.33,9.68,9.68,9.68h6.42c5.34,0,9.68-4.33,9.68-9.68V409.93z"/>
					<linearGradient id="SVGID_6_" gradientUnits="userSpaceOnUse" x1="616.9427" y1="333.9202" x2="582.7778" y2="401.7325">
						<stop  offset="0" style="stop-color:#E2E8F7"/>
						<stop  offset="1" style="stop-color:#FFFFFF"/>
					</linearGradient>
					<path class="st28" d="M587.27,409.93v-7.26c0-1.19,0.92-2.16,2.04-2.16h2.6c1.13,0,2.04-0.97,2.04-2.16v-2.75
						c0-1.19-0.92-2.16-2.04-2.16h-8.36c-5.75,0-10.41-4.92-10.41-10.99l0,0c0-6.07,4.66-10.99,10.41-10.99h11.09
						c1.13,0,2.04-0.97,2.04-2.16v-0.98c0-6.29,4.83-11.38,10.78-11.38l0,0c5.95,0,10.78,5.1,10.78,11.38l0,0
						c0,6.79-5.21,12.3-11.65,12.3h-19.51c-1.13,0-2.04,0.97-2.04,2.16l0,0c0,1.19,0.92,2.16,2.04,2.16h10.65
						c3.93,0,7.12,3.37,7.12,7.52v4.71c0,4.15-3.19,7.52-7.12,7.52l0,0c-1.13,0-2.04,0.97-2.04,2.16v3.07H587.27z"/>
				</g>
			</g>
			<g>
				<g>
					<path class="st24" d="M568.59,371.4H501.2c-2.67,0-4.84-2.17-4.84-4.84v-90.54c0-2.67,2.17-4.84,4.84-4.84h67.39
						c2.67,0,4.84,2.17,4.84,4.84v90.54C573.43,369.23,571.26,371.4,568.59,371.4z"/>
					<path class="st29" d="M573.01,368.08h-67.65c-3.14,0-5.7-2.7-5.7-6.02V271.8c0-3.32,2.56-6.02,5.7-6.02h67.65
						c3.14,0,5.7,2.7,5.7,6.02v90.27C578.71,365.38,576.16,368.08,573.01,368.08z M505.37,267.87c-2.05,0-3.72,1.76-3.72,3.92v90.27
						c0,2.16,1.67,3.92,3.72,3.92h67.65c2.05,0,3.72-1.76,3.72-3.92V271.8c0-2.16-1.67-3.92-3.72-3.92H505.37z"/>
					<g>
						<path class="st30" d="M522.96,303.25h-15.03v-19.01h15.03V303.25z M509.91,301.16h11.07v-14.83h-11.07V301.16z"/>
						<path class="st31" d="M519.18,297.35l-4.47-5.26l1.48-1.4l2.71,3.2c1.38-1.92,4.74-5.75,11.13-8.52l0.75,1.93
							c-7.96,3.46-10.89,8.74-10.91,8.79L519.18,297.35z"/>
						<path class="st25" d="M561.3,291.36h-23.32c-0.81,0-1.47-0.7-1.47-1.55l0,0c0-0.86,0.66-1.55,1.47-1.55h23.32
							c0.81,0,1.47,0.7,1.47,1.55l0,0C562.77,290.66,562.11,291.36,561.3,291.36z"/>
						<path class="st25" d="M561.3,298.91h-23.32c-0.81,0-1.47-0.7-1.47-1.55l0,0c0-0.86,0.66-1.55,1.47-1.55h23.32
							c0.81,0,1.47,0.7,1.47,1.55l0,0C562.77,298.21,562.11,298.91,561.3,298.91z"/>
					</g>
					<g>
						<path class="st30" d="M522.96,332.38h-15.03v-19.01h15.03V332.38z M509.91,330.29h11.07v-14.83h-11.07V330.29z"/>
						<path class="st31" d="M519.18,326.48l-4.47-5.26l1.48-1.4l2.71,3.2c1.38-1.92,4.74-5.75,11.13-8.52l0.75,1.93
							c-7.96,3.46-10.89,8.74-10.91,8.79L519.18,326.48z"/>
						<path class="st25" d="M561.3,320.49h-23.32c-0.81,0-1.47-0.7-1.47-1.55l0,0c0-0.86,0.66-1.55,1.47-1.55h23.32
							c0.81,0,1.47,0.7,1.47,1.55l0,0C562.77,319.79,562.11,320.49,561.3,320.49z"/>
						<path class="st25" d="M561.3,328.04h-23.32c-0.81,0-1.47-0.7-1.47-1.55l0,0c0-0.86,0.66-1.55,1.47-1.55h23.32
							c0.81,0,1.47,0.7,1.47,1.55l0,0C562.77,327.34,562.11,328.04,561.3,328.04z"/>
					</g>
					<g>
						<path class="st30" d="M522.96,361.51h-15.03V342.5h15.03V361.51z M509.91,359.42h11.07v-14.83h-11.07V359.42z"/>
						<path class="st31" d="M519.18,355.61l-4.47-5.26l1.48-1.4l2.71,3.19c1.38-1.92,4.74-5.75,11.13-8.52l0.75,1.93
							c-7.96,3.46-10.89,8.74-10.91,8.79L519.18,355.61z"/>
						<path class="st25" d="M561.3,349.62h-23.32c-0.81,0-1.47-0.7-1.47-1.55l0,0c0-0.86,0.66-1.55,1.47-1.55h23.32
							c0.81,0,1.47,0.7,1.47,1.55l0,0C562.77,348.92,562.11,349.62,561.3,349.62z"/>
						<path class="st25" d="M561.3,357.17h-23.32c-0.81,0-1.47-0.7-1.47-1.55l0,0c0-0.86,0.66-1.55,1.47-1.55h23.32
							c0.81,0,1.47,0.7,1.47,1.55l0,0C562.77,356.47,562.11,357.17,561.3,357.17z"/>
					</g>
				</g>
				<g>
					<path class="st32" d="M806.22,233.36h-67.39c-2.67,0-4.84-2.17-4.84-4.84v-90.54c0-2.67,2.17-4.84,4.84-4.84h67.39
						c2.67,0,4.84,2.17,4.84,4.84v90.54C811.06,231.19,808.9,233.36,806.22,233.36z"/>
					<path class="st29" d="M812.3,228.69h-67.65c-3.14,0-5.7-2.7-5.7-6.02v-90.27c0-3.32,2.56-6.02,5.7-6.02h67.65
						c3.14,0,5.7,2.7,5.7,6.02v90.27C818,225.99,815.44,228.69,812.3,228.69z M744.66,128.48c-2.05,0-3.72,1.76-3.72,3.92v90.27
						c0,2.16,1.67,3.92,3.72,3.92h67.65c2.05,0,3.72-1.76,3.72-3.92v-90.27c0-2.16-1.67-3.92-3.72-3.92H744.66z"/>
					<g class="st33">
						<ellipse class="st34" cx="755.1" cy="159.92" rx="11.89" ry="12.56"/>
						<path class="st35" d="M758.24,158.26l7.93-14.91c7.27,1.92,10.74,9.16,7.27,16.57L758.24,158.26z"/>
						<g>
							<path class="st25" d="M750.81,186.08c0,2.02-1.55,3.66-3.47,3.66c-1.92,0-3.47-1.64-3.47-3.66c0-2.02,1.55-3.66,3.47-3.66
								C749.26,182.42,750.81,184.06,750.81,186.08z"/>
							<path class="st25" d="M750.81,202.31c0,2.02-1.55,3.66-3.47,3.66c-1.92,0-3.47-1.64-3.47-3.66s1.55-3.66,3.47-3.66
								C749.26,198.64,750.81,200.28,750.81,202.31z"/>
							<path class="st25" d="M796.07,189.75h-27.75c-1.92,0-3.47-1.64-3.47-3.66l0,0c0-2.02,1.55-3.66,3.47-3.66h27.75
								c1.92,0,3.47,1.64,3.47,3.66l0,0C799.54,188.11,797.99,189.75,796.07,189.75z"/>
							<path class="st25" d="M796.07,205.97h-27.75c-1.92,0-3.47-1.64-3.47-3.66l0,0c0-2.02,1.55-3.66,3.47-3.66h27.75
								c1.92,0,3.47,1.64,3.47,3.66l0,0C799.54,204.33,797.99,205.97,796.07,205.97z"/>
							<path class="st25" d="M750.81,218.79c0,2.02-1.55,3.66-3.47,3.66c-1.92,0-3.47-1.64-3.47-3.66s1.55-3.66,3.47-3.66
								C749.26,215.13,750.81,216.77,750.81,218.79z"/>
							<path class="st25" d="M796.07,222.45h-27.75c-1.92,0-3.47-1.64-3.47-3.66l0,0c0-2.02,1.55-3.66,3.47-3.66h27.75
								c1.92,0,3.47,1.64,3.47,3.66l0,0C799.54,220.81,797.99,222.45,796.07,222.45z"/>
						</g>
					</g>
				</g>
				<g>
					<path class="st32" d="M227.66,203.95h-67.39c-2.67,0-4.84-2.17-4.84-4.84V91.83c0-2.67,2.17-4.84,4.84-4.84h67.39
						c2.67,0,4.84,2.17,4.84,4.84v107.28C232.5,201.78,230.33,203.95,227.66,203.95z"/>
					<path class="st29" d="M223.49,200.46h-67.65c-3.14,0-5.7-2.7-5.7-6.02V87.43c0-3.32,2.56-6.02,5.7-6.02h67.65
						c3.14,0,5.7,2.7,5.7,6.02v107.01C229.19,197.76,226.64,200.46,223.49,200.46z M155.85,83.5c-2.05,0-3.72,1.76-3.72,3.92v107.01
						c0,2.16,1.67,3.92,3.72,3.92h67.65c2.05,0,3.72-1.76,3.72-3.92V87.43c0-2.16-1.67-3.92-3.72-3.92H155.85z"/>
					<g>
						<path class="st36" d="M190.34,135.13l-0.97,0.91c-0.61,0.58-1.55,0.52-2.1-0.13l-9.92-11.8l3.19-2.99l9.92,11.8
							C191.01,133.56,190.95,134.56,190.34,135.13z"/>
						<path class="st36" d="M173.89,102.43c-6.28,0-11.4,5.38-11.4,12.04s5.11,12.04,11.4,12.04c6.3,0,11.4-5.38,11.4-12.04
							S180.19,102.43,173.89,102.43z M173.89,122.67c-4.28,0-7.77-3.67-7.77-8.2c0-4.54,3.49-8.2,7.77-8.2c4.3,0,7.77,3.66,7.77,8.2
							C181.66,119,178.19,122.67,173.89,122.67z"/>
						<path class="st37" d="M220.07,109.06h-18.01c-1.14,0-2.06-0.98-2.06-2.18l0,0c0-1.2,0.92-2.18,2.06-2.18h18.01
							c1.14,0,2.06,0.98,2.06,2.18l0,0C222.13,108.08,221.21,109.06,220.07,109.06z"/>
						<path class="st37" d="M220.07,120.4h-18.01c-1.14,0-2.06-0.98-2.06-2.18l0,0c0-1.2,0.92-2.18,2.06-2.18h18.01
							c1.14,0,2.06,0.98,2.06,2.18l0,0C222.13,119.42,221.21,120.4,220.07,120.4z"/>
						<path class="st37" d="M220.07,130.86h-18.01c-1.14,0-2.06-0.98-2.06-2.18l0,0c0-1.2,0.92-2.18,2.06-2.18h18.01
							c1.14,0,2.06,0.98,2.06,2.18l0,0C222.13,129.89,221.21,130.86,220.07,130.86z"/>
						<path class="st37" d="M197.64,159.99h-27.75c-1.3,0-2.35-1.11-2.35-2.49l0,0c0-1.37,1.05-2.49,2.35-2.49h27.75
							c1.3,0,2.35,1.11,2.35,2.49l0,0C200,158.88,198.94,159.99,197.64,159.99z"/>
						<path class="st37" d="M197.64,175.56h-27.75c-1.3,0-2.35-1.11-2.35-2.49l0,0c0-1.37,1.05-2.49,2.35-2.49h27.75
							c1.3,0,2.35,1.11,2.35,2.49l0,0C200,174.45,198.94,175.56,197.64,175.56z"/>
						<path class="st37" d="M197.64,191.13h-27.75c-1.3,0-2.35-1.11-2.35-2.49l0,0c0-1.37,1.05-2.49,2.35-2.49h27.75
							c1.3,0,2.35,1.11,2.35,2.49l0,0C200,190.02,198.94,191.13,197.64,191.13z"/>
						<path class="st37" d="M219.39,157.51c0,2.2-1.69,3.99-3.78,3.99c-2.09,0-3.78-1.79-3.78-3.99c0-2.2,1.69-3.99,3.78-3.99
							C217.69,153.52,219.39,155.3,219.39,157.51z"/>
						<path class="st37" d="M219.39,173.07c0,2.2-1.69,3.99-3.78,3.99c-2.09,0-3.78-1.79-3.78-3.99c0-2.2,1.69-3.99,3.78-3.99
							C217.69,169.08,219.39,170.87,219.39,173.07z"/>
						<path class="st37" d="M219.39,188.64c0,2.2-1.69,3.99-3.78,3.99c-2.09,0-3.78-1.79-3.78-3.99c0-2.2,1.69-3.99,3.78-3.99
							C217.69,184.65,219.39,186.44,219.39,188.64z"/>
					</g>
				</g>
				<g>
					<path class="st38" d="M558.09,205.58H434.64c-4.64,0-8.4-3.76-8.4-8.4v-87.33c0-4.64,3.76-8.4,8.4-8.4h123.44
						c4.64,0,8.4,3.76,8.4,8.4v87.33C566.49,201.82,562.73,205.58,558.09,205.58z"/>
					<path class="st39" d="M562.61,201.83H438.71c-5.05,0-9.17-4.34-9.17-9.68v-86.87c0-5.34,4.11-9.68,9.17-9.68h123.89
						c5.05,0,9.17,4.34,9.17,9.68v86.87C571.77,197.49,567.66,201.83,562.61,201.83z M438.71,97.7c-3.96,0-7.19,3.4-7.19,7.59v86.87
						c0,4.18,3.22,7.59,7.19,7.59h123.89c3.96,0,7.19-3.4,7.19-7.59v-86.87c0-4.18-3.22-7.59-7.19-7.59H438.71z"/>
					<g class="st33">
						<path class="st40" d="M512.47,122.64h-68.64c-1.98,0-3.59-1.7-3.59-3.79l0,0c0-2.1,1.61-3.79,3.59-3.79h68.64
							c1.98,0,3.59,1.7,3.59,3.79l0,0C516.06,120.94,514.46,122.64,512.47,122.64z"/>
						<path class="st41" d="M513.45,178.37h-70.6c-1.44,0-2.61-1.17-2.61-2.61V138.6c0-1.44,1.17-2.61,2.61-2.61h70.6
							c1.44,0,2.61,1.17,2.61,2.61v37.17C516.06,177.2,514.9,178.37,513.45,178.37z"/>
						<path class="st40" d="M548.9,122.64h-20.32c-1.98,0-3.59-1.7-3.59-3.79l0,0c0-2.1,1.61-3.79,3.59-3.79h20.32
							c1.98,0,3.59,1.7,3.59,3.79l0,0C552.49,120.94,550.88,122.64,548.9,122.64z"/>
						<path class="st40" d="M550.26,142.79h-21.35c-1.23,0-2.23-1.05-2.23-2.35l0,0c0-1.3,1-2.35,2.23-2.35h21.35
							c1.23,0,2.23,1.05,2.23,2.35l0,0C552.49,141.73,551.49,142.79,550.26,142.79z"/>
						<path class="st40" d="M550.26,153.43h-21.35c-1.23,0-2.23-1.05-2.23-2.35l0,0c0-1.3,1-2.35,2.23-2.35h21.35
							c1.23,0,2.23,1.05,2.23,2.35l0,0C552.49,152.37,551.49,153.43,550.26,153.43z"/>
						<path class="st40" d="M550.26,164.07h-21.35c-1.23,0-2.23-1.05-2.23-2.35l0,0c0-1.3,1-2.35,2.23-2.35h21.35
							c1.23,0,2.23,1.05,2.23,2.35l0,0C552.49,163.01,551.49,164.07,550.26,164.07z"/>
						<path class="st40" d="M550.26,174.71h-21.35c-1.23,0-2.23-1.05-2.23-2.35l0,0c0-1.3,1-2.35,2.23-2.35h21.35
							c1.23,0,2.23,1.05,2.23,2.35l0,0C552.49,173.66,551.49,174.71,550.26,174.71z"/>
						<path class="st40" d="M535.76,194.94h-79.04c-1.64,0-2.97-1.41-2.97-3.14l0,0c0-1.73,1.33-3.14,2.97-3.14h79.04
							c1.64,0,2.97,1.41,2.97,3.14l0,0C538.74,193.54,537.41,194.94,535.76,194.94z"/>
					</g>
				</g>
				<g>
					<path class="st38" d="M160.51,312.16H43.59c-3.75,0-6.79-3.04-6.79-6.79v-75.38c0-3.75,3.04-6.79,6.79-6.79h116.92
						c3.75,0,6.79,3.04,6.79,6.79v75.38C167.3,309.12,164.26,312.16,160.51,312.16z"/>
					<path class="st39" d="M155.88,308.06H38.6c-4.19,0-7.6-3.6-7.6-8.02v-75.01c0-4.42,3.41-8.02,7.6-8.02h117.28
						c4.19,0,7.6,3.6,7.6,8.02v75.01C163.48,304.46,160.07,308.06,155.88,308.06z M38.6,219.1c-3.1,0-5.62,2.66-5.62,5.93v75.01
						c0,3.27,2.52,5.93,5.62,5.93h117.28c3.1,0,5.62-2.66,5.62-5.93v-75.01c0-3.27-2.52-5.93-5.62-5.93H38.6z"/>
					<g class="st33">
						<path class="st42" d="M83.76,264.26c-3.03,3.22-7.24,5.21-11.89,5.21c-9.28,0-16.81-7.95-16.81-17.75
							c0-9.82,7.53-17.77,16.81-17.77c1.88,0,3.71,0.33,5.39,0.94l-5.39,16.83L83.76,264.26z"/>
						<path class="st35" d="M90.91,250.36c0,4.16-1.6,7.93-4.19,10.65l-10.1-10.65l4.58-14.29
							C86.84,238.07,90.91,243.71,90.91,250.36z"/>
						<path class="st42" d="M147.73,270.52h-38.65v-34.46c0-0.58,0.44-1.05,0.99-1.05c0.55,0,0.99,0.47,0.99,1.05v32.37h36.67
							c0.55,0,0.99,0.47,0.99,1.05C148.72,270.06,148.27,270.52,147.73,270.52z"/>
						<rect x="117.17" y="252.77" class="st42" width="4.96" height="15.66"/>
						<rect x="127.41" y="244.83" class="st35" width="4.96" height="23.61"/>
						<rect x="137.48" y="256.63" class="st42" width="4.96" height="11.8"/>
						<path class="st42" d="M79.26,286.51h-23.3c-0.96,0-1.73-0.77-1.73-1.73v-0.2c0-0.96,0.77-1.73,1.73-1.73h23.3
							c0.96,0,1.73,0.77,1.73,1.73v0.2C80.99,285.74,80.22,286.51,79.26,286.51z"/>
						<path class="st42" d="M114.77,286.51h-23.3c-0.96,0-1.73-0.77-1.73-1.73v-0.2c0-0.96,0.77-1.73,1.73-1.73h23.3
							c0.96,0,1.73,0.77,1.73,1.73v0.2C116.5,285.74,115.73,286.51,114.77,286.51z"/>
						<path class="st42" d="M148.14,286.51h-23.3c-0.96,0-1.73-0.77-1.73-1.73v-0.2c0-0.96,0.77-1.73,1.73-1.73h23.3
							c0.96,0,1.73,0.77,1.73,1.73v0.2C149.87,285.74,149.1,286.51,148.14,286.51z"/>
						<path class="st42" d="M94.54,299.6H71.25c-0.96,0-1.73-0.82-1.73-1.83l0,0c0-1.01,0.78-1.83,1.73-1.83h23.29
							c0.96,0,1.73,0.82,1.73,1.83l0,0C96.27,298.78,95.5,299.6,94.54,299.6z"/>
						<path class="st42" d="M127.91,299.6h-23.29c-0.96,0-1.73-0.82-1.73-1.83l0,0c0-1.01,0.78-1.83,1.73-1.83h23.29
							c0.96,0,1.73,0.82,1.73,1.83l0,0C129.64,298.78,128.86,299.6,127.91,299.6z"/>
					</g>
				</g>
			</g>
		</g>
	</g>
</g>
</svg>
