<?xml version="1.0" encoding="utf-8"?>
<!-- Generator: Adobe Illustrator 24.0.0, SVG Export Plug-In . SVG Version: 6.00 Build 0)  -->
<svg version="1.1" xmlns="http://www.w3.org/2000/svg" xmlns:xlink="http://www.w3.org/1999/xlink" x="0px" y="0px"
	 viewBox="0 0 1160 927" style="enable-background:new 0 0 1160 927;" xml:space="preserve">
<style type="text/css">
	.st0{fill:#E8E2F8;}
	.st1{fill:#86B8BE;}
	.st2{clip-path:url(#SVGID_6_);}
	.st3{clip-path:url(#SVGID_9_);fill:url(#SVGID_12_);}
	.st4{opacity:0.2;fill:#B893EC;enable-background:new    ;}
	.st5{fill:#E7E2D2;}
	.st6{clip-path:url(#SVGID_20_);}
	.st7{clip-path:url(#SVGID_21_);fill:url(#SVGID_22_);}
	.st8{opacity:0.16;fill:url(#SVGID_23_);enable-background:new    ;}
	.st9{fill:#6B4CC5;}
	.st10{clip-path:url(#SVGID_26_);}
	.st11{clip-path:url(#SVGID_27_);fill:url(#SVGID_28_);}
	.st12{opacity:0.16;fill:url(#SVGID_29_);enable-background:new    ;}
	.st13{opacity:0.12;}
	.st14{clip-path:url(#SVGID_32_);}
	.st15{clip-path:url(#SVGID_33_);fill:url(#SVGID_34_);}
	.st16{fill:url(#SVGID_35_);}
	.st17{clip-path:url(#SVGID_38_);}
	.st18{clip-path:url(#SVGID_39_);fill:url(#SVGID_40_);}
	.st19{fill:url(#SVGID_41_);}
	.st20{clip-path:url(#SVGID_44_);}
	.st21{clip-path:url(#SVGID_45_);fill:url(#SVGID_46_);}
	.st22{fill:url(#SVGID_47_);}
	.st23{clip-path:url(#SVGID_50_);}
	.st24{clip-path:url(#SVGID_51_);fill:url(#SVGID_52_);}
	.st25{fill:url(#SVGID_53_);}
	.st26{clip-path:url(#SVGID_56_);}
	.st27{clip-path:url(#SVGID_57_);fill:url(#SVGID_58_);}
	.st28{fill:url(#SVGID_59_);}
	.st29{clip-path:url(#SVGID_62_);}
	.st30{clip-path:url(#SVGID_63_);fill:url(#SVGID_64_);}
	.st31{fill:url(#SVGID_65_);}
	.st32{clip-path:url(#SVGID_68_);}
	.st33{clip-path:url(#SVGID_69_);fill:url(#SVGID_70_);}
	.st34{fill:url(#SVGID_71_);}
	.st35{clip-path:url(#SVGID_74_);}
	.st36{clip-path:url(#SVGID_75_);fill:url(#SVGID_76_);}
	.st37{fill:url(#SVGID_77_);}
	.st38{fill:#D7BA39;}
	.st39{fill:#C5A427;}
	.st40{clip-path:url(#SVGID_80_);}
	.st41{clip-path:url(#SVGID_81_);fill:url(#SVGID_82_);}
	.st42{opacity:0.16;fill:url(#SVGID_83_);enable-background:new    ;}
	.st43{fill:#FFFFFF;}
	.st44{fill:url(#SVGID_84_);}
	.st45{fill:url(#SVGID_85_);}
	.st46{fill:url(#SVGID_86_);}
	.st47{fill:url(#SVGID_87_);}
</style>
<g id="background">
</g>
<g id="shadow">
	<g id="background_1_">
		<path class="st0" d="M1032.73,711.06c-23.51,137.89-866.92,146.44-891,9c-10.54-60.15,142.67-109.39,135-225
			c-4.65-70.04-65.63-85.61-63-171c2.2-71.25,40.85-107.71,18-153c-21.49-42.59-71.6-38.26-72-54c-1.4-55.17,615.92-41.24,792,9
			c17.13,4.89,48.56,15.39,54,37.65c9.82,40.2-74.12,66.76-81,124.35c-7.03,58.84,94.14,86.23,90,153c-2.33,37.58-40.66,39.89-54,81
			C935.79,598.94,1041.46,659.86,1032.73,711.06z"/>
		<path class="st1" d="M1095.73,540.06"/>
	</g>
	<g id="shadow_1_">
		<g>
			<g>
				<defs>
					<polygon id="SVGID_1_" points="59.73,83.06 60.73,83.06 59.73,84.06 					"/>
				</defs>
				<defs>
					<polygon id="SVGID_3_" points="57.73,81.06 56.73,81.06 57.73,80.06 					"/>
				</defs>
				<clipPath id="SVGID_6_">
					<use xlink:href="#SVGID_1_"  style="overflow:visible;"/>
				</clipPath>
				<clipPath id="SVGID_9_" class="st2">
					<use xlink:href="#SVGID_3_"  style="overflow:visible;"/>
				</clipPath>
				
					<linearGradient id="SVGID_12_" gradientUnits="userSpaceOnUse" x1="590.6782" y1="-722.7134" x2="147.2989" y2="-715.2806" gradientTransform="matrix(1.0659 -0.0198 -0.0218 -1.1782 224.5468 -75.5932)">
					<stop  offset="4.444360e-03" style="stop-color:#000000"/>
					<stop  offset="0.0906" style="stop-color:#161616"/>
					<stop  offset="0.2569" style="stop-color:#3A3A3A"/>
					<stop  offset="0.4865" style="stop-color:#767676"/>
					<stop  offset="0.7675" style="stop-color:#CCCCCC"/>
					<stop  offset="0.9145" style="stop-color:#FFFFFF"/>
				</linearGradient>
				<path class="st3" d="M869.89,759.84c0.32,17.18-105.25,33.06-235.79,35.48s-236.62-9.55-236.94-26.72
					c-0.32-17.18,105.25-33.06,235.79-35.48C763.48,730.7,869.57,742.66,869.89,759.84z"/>
			</g>
		</g>
		
			<ellipse transform="matrix(0.9998 -0.0185 0.0185 0.9998 -14.03 11.8506)" class="st4" cx="633.49" cy="764.22" rx="236.4" ry="31.11"/>
	</g>
	<g id="object_1_">
		<g>
			<g>
				<ellipse class="st5" cx="559.42" cy="717.69" rx="33.91" ry="20.45"/>
				<g>
					<g>
						<defs>
							<polygon id="SVGID_15_" points="59.73,83.06 60.73,83.06 59.73,84.06 							"/>
						</defs>
						<defs>
							<polygon id="SVGID_18_" points="57.73,81.06 56.73,81.06 57.73,80.06 							"/>
						</defs>
						<clipPath id="SVGID_20_">
							<use xlink:href="#SVGID_15_"  style="overflow:visible;"/>
						</clipPath>
						<clipPath id="SVGID_21_" class="st6">
							<use xlink:href="#SVGID_18_"  style="overflow:visible;"/>
						</clipPath>
						
							<linearGradient id="SVGID_22_" gradientUnits="userSpaceOnUse" x1="560.1409" y1="266.3816" x2="560.1409" y2="279.0658" gradientTransform="matrix(1 0 0 -1 0 978)">
							<stop  offset="4.444360e-03" style="stop-color:#000000"/>
							<stop  offset="0.0458" style="stop-color:#1F1F1F"/>
							<stop  offset="0.1414" style="stop-color:#505050"/>
							<stop  offset="0.2408" style="stop-color:#7D7D7D"/>
							<stop  offset="0.342" style="stop-color:#A3A3A3"/>
							<stop  offset="0.4455" style="stop-color:#C4C4C4"/>
							<stop  offset="0.5518" style="stop-color:#DDDDDD"/>
							<stop  offset="0.6622" style="stop-color:#F0F0F0"/>
							<stop  offset="0.7793" style="stop-color:#FBFBFB"/>
							<stop  offset="0.9145" style="stop-color:#FFFFFF"/>
						</linearGradient>
						<path class="st7" d="M540.39,713.39c9.81,1.42,19.68,2.47,29.6,3.05c7.77,0.46,15.55,0.73,23.33,0.91
							c-0.29-11.14-15.35-20.12-33.9-20.12c-15.3,0-28.24,6.12-32.46,14.51C531.54,712.45,536.24,712.79,540.39,713.39z"/>
					</g>
				</g>
				
					<linearGradient id="SVGID_23_" gradientUnits="userSpaceOnUse" x1="560.1409" y1="266.3816" x2="560.1409" y2="279.0658" gradientTransform="matrix(1 0 0 -1 0 978)">
					<stop  offset="4.444360e-03" style="stop-color:#000000"/>
					<stop  offset="0.0649" style="stop-color:#000000"/>
					<stop  offset="0.9145" style="stop-color:#000000"/>
				</linearGradient>
				<path class="st8" d="M540.39,713.39c9.81,1.42,19.68,2.47,29.6,3.05c7.77,0.46,15.55,0.73,23.33,0.91
					c-0.29-11.14-15.35-20.12-33.9-20.12c-15.3,0-28.24,6.12-32.46,14.51C531.54,712.45,536.24,712.79,540.39,713.39z"/>
			</g>
			<path class="st9" d="M728.21,664.74c-1.91-2.11-3.95-4.11-5.84-6.23c-26.2-29.5-32.44-74.69-35.18-112.53
				c-2.9-40.13-1.56-80.95-10.77-120.37c-9.22-39.46-38.66-72.64-78.45-86.04c-0.41-3.93-1.18-7.8-2.31-11.17
				c-2.67-8.03-7.81-14.99-16.53-19.58c-16.61-8.76-35.95-2.66-44.51,13.92c-2.13,4.12-3.74,9.67-4.1,15.1
				c-17.81,4.9-34.52,13.92-48.27,26.48c-27.12,24.78-37.58,64.02-41.21,99.28c-3.1,30.04-0.36,58.62-1.77,88.8
				c-0.98,20.87-4.11,43.6-9.89,63.85c-2.93,10.28-7.21,20.26-13.13,29.19c-5.11,7.7-12.88,13.26-17.53,21.08
				c-1.77,2.97-3.38,5.43-2.56,9.05c1.8,7.88,13.22,11.81,19.74,14.15c14.27,5.12,29.55,7.63,44.52,9.71
				c41.7,5.82,84.19,7,126.23,6.12c37.86-0.79,77.04-2.46,113.95-11.62c9.43-2.34,22.14-5.25,28.99-12.69
				C735.2,675.12,732.69,669.71,728.21,664.74z M546.1,334.62c2.12-8.21,7.45-15.86,16.65-16.66c12.61-1.09,16.91,7.49,18.98,17.38
				C569.94,333.21,557.9,333.02,546.1,334.62z"/>
			<g>
				<g>
					<defs>
						<polygon id="SVGID_24_" points="59.73,83.06 60.73,83.06 59.73,84.06 						"/>
					</defs>
					<defs>
						<polygon id="SVGID_25_" points="57.73,81.06 56.73,81.06 57.73,80.06 						"/>
					</defs>
					<clipPath id="SVGID_26_">
						<use xlink:href="#SVGID_24_"  style="overflow:visible;"/>
					</clipPath>
					<clipPath id="SVGID_27_" class="st10">
						<use xlink:href="#SVGID_25_"  style="overflow:visible;"/>
					</clipPath>
					
						<linearGradient id="SVGID_28_" gradientUnits="userSpaceOnUse" x1="288.3054" y1="603.0999" x2="553.2774" y2="338.1279" gradientTransform="matrix(1 0 0 -1 0 978)">
						<stop  offset="4.444360e-03" style="stop-color:#000000"/>
						<stop  offset="0.0906" style="stop-color:#161616"/>
						<stop  offset="0.2569" style="stop-color:#3A3A3A"/>
						<stop  offset="0.4865" style="stop-color:#767676"/>
						<stop  offset="0.7675" style="stop-color:#CCCCCC"/>
						<stop  offset="0.9145" style="stop-color:#FFFFFF"/>
					</linearGradient>
					<path class="st11" d="M728.21,665.13c-1.9-2.11-3.95-4.1-5.83-6.23c-16.91-19.04-23.37-38.5-28.68-63.98
						c-0.61-2.94-2.07-9.77-2.07-11.02c0-4.47-10.75-5.31-14.82-7.15c-39.67-17.88-80.99-33-119.33-53.58
						c-20.36-10.93-39.73-23.69-57.8-38.08c-9.04-7.2-17.75-14.8-26.09-22.79c-8.6-8.23-12.04-13.43-15.57-24.58
						c-1.17-3.7-2.19-7.44-3.13-11.2c-0.78-3.13-1-8.17-2.74-10.78c-2.92,1.05-4.73,10.04-5.56,12.83
						c-1.45,4.84-2.53,9.78-3.37,14.76c-1.63,9.63-2.37,19.39-3.01,29.13c-1.51,22.95-0.04,30.35,0.08,41.45
						c0.14,13.58-0.37,25.22-1.01,38.86c-0.98,20.87-4.11,43.6-9.89,63.85c-2.93,10.28-7.21,20.26-13.13,29.19
						c-5.11,7.7-12.88,13.26-17.53,21.08c-1.77,2.97-3.38,5.43-2.56,9.05c1.8,7.88,13.22,11.81,19.74,14.15
						c14.27,5.12,29.55,7.62,44.52,9.71c41.7,5.82,84.19,7,126.23,6.12c37.86-0.79,77.04-2.46,113.95-11.62
						c9.43-2.34,22.14-5.25,28.99-12.69C735.2,675.52,732.69,670.1,728.21,665.13z"/>
				</g>
			</g>
			
				<linearGradient id="SVGID_29_" gradientUnits="userSpaceOnUse" x1="288.3054" y1="603.0999" x2="553.2774" y2="338.1279" gradientTransform="matrix(1 0 0 -1 0 978)">
				<stop  offset="4.444360e-03" style="stop-color:#000000"/>
				<stop  offset="0.9145" style="stop-color:#000000"/>
			</linearGradient>
			<path class="st12" d="M728.21,665.13c-1.9-2.11-3.95-4.1-5.83-6.23c-16.91-19.04-23.37-38.5-28.68-63.98
				c-0.61-2.94-2.07-9.77-2.07-11.02c0-4.47-10.75-5.31-14.82-7.15c-39.67-17.88-80.99-33-119.33-53.58
				c-20.36-10.93-39.73-23.69-57.8-38.08c-9.04-7.2-17.75-14.8-26.09-22.79c-8.6-8.23-12.04-13.43-15.57-24.58
				c-1.17-3.7-2.19-7.44-3.13-11.2c-0.78-3.13-1-8.17-2.74-10.78c-2.92,1.05-4.73,10.04-5.56,12.83c-1.45,4.84-2.53,9.78-3.37,14.76
				c-1.63,9.63-2.37,19.39-3.01,29.13c-1.51,22.95-0.04,30.35,0.08,41.45c0.14,13.58-0.37,25.22-1.01,38.86
				c-0.98,20.87-4.11,43.6-9.89,63.85c-2.93,10.28-7.21,20.26-13.13,29.19c-5.11,7.7-12.88,13.26-17.53,21.08
				c-1.77,2.97-3.38,5.43-2.56,9.05c1.8,7.88,13.22,11.81,19.74,14.15c14.27,5.12,29.55,7.62,44.52,9.71
				c41.7,5.82,84.19,7,126.23,6.12c37.86-0.79,77.04-2.46,113.95-11.62c9.43-2.34,22.14-5.25,28.99-12.69
				C735.2,675.52,732.69,670.1,728.21,665.13z"/>
			<path class="st5" d="M438.64,562.38c0,0,147.2,34.96,250.19,2.16c0,0-0.97-8.89-1.64-18.56c0,0-105.14,31-247.59-3.92
				c0,0-0.65,16.2-0.81,18.26L438.64,562.38z"/>
			<path class="st5" d="M436.96,578.58c0,0,134.02,41.42,253.92,1.72c0,0,2.1,14.95,5.21,25.47c3.12,10.53-141.43,52.9-264,0
				C432.08,605.77,436.62,580.91,436.96,578.58z"/>
			<g class="st13">
				<g>
					<g>
						<defs>
							<polygon id="SVGID_30_" points="59.73,83.06 60.73,83.06 59.73,84.06 							"/>
						</defs>
						<defs>
							<polygon id="SVGID_31_" points="57.73,81.06 56.73,81.06 57.73,80.06 							"/>
						</defs>
						<clipPath id="SVGID_32_">
							<use xlink:href="#SVGID_30_"  style="overflow:visible;"/>
						</clipPath>
						<clipPath id="SVGID_33_" class="st14">
							<use xlink:href="#SVGID_31_"  style="overflow:visible;"/>
						</clipPath>
						
							<linearGradient id="SVGID_34_" gradientUnits="userSpaceOnUse" x1="679.3008" y1="381.1819" x2="696.1398" y2="381.1819" gradientTransform="matrix(1 0 0 -1 0 978)">
							<stop  offset="4.444360e-03" style="stop-color:#000000"/>
							<stop  offset="0.0906" style="stop-color:#161616"/>
							<stop  offset="0.2569" style="stop-color:#3A3A3A"/>
							<stop  offset="0.4865" style="stop-color:#767676"/>
							<stop  offset="0.7675" style="stop-color:#CCCCCC"/>
							<stop  offset="0.9145" style="stop-color:#FFFFFF"/>
						</linearGradient>
						<path class="st15" d="M696.09,605.77c-3.12-10.53-5.21-25.47-5.21-25.47c-3.85,1.27-7.71,2.46-11.58,3.57l6.28,29.46
							C692.83,610.3,696.62,607.57,696.09,605.77z"/>
					</g>
				</g>
				
					<linearGradient id="SVGID_35_" gradientUnits="userSpaceOnUse" x1="679.3008" y1="381.1819" x2="696.1398" y2="381.1819" gradientTransform="matrix(1 0 0 -1 0 978)">
					<stop  offset="4.444360e-03" style="stop-color:#000000"/>
					<stop  offset="0.9145" style="stop-color:#000000"/>
				</linearGradient>
				<path class="st16" d="M696.09,605.77c-3.12-10.53-5.21-25.47-5.21-25.47c-3.85,1.27-7.71,2.46-11.58,3.57l6.28,29.46
					C692.83,610.3,696.62,607.57,696.09,605.77z"/>
				<g>
					<g>
						<defs>
							<polygon id="SVGID_36_" points="59.73,83.06 60.73,83.06 59.73,84.06 							"/>
						</defs>
						<defs>
							<polygon id="SVGID_37_" points="57.73,81.06 56.73,81.06 57.73,80.06 							"/>
						</defs>
						<clipPath id="SVGID_38_">
							<use xlink:href="#SVGID_36_"  style="overflow:visible;"/>
						</clipPath>
						<clipPath id="SVGID_39_" class="st17">
							<use xlink:href="#SVGID_37_"  style="overflow:visible;"/>
						</clipPath>
						
							<linearGradient id="SVGID_40_" gradientUnits="userSpaceOnUse" x1="644.4308" y1="372.1418" x2="668.2008" y2="372.1418" gradientTransform="matrix(1 0 0 -1 0 978)">
							<stop  offset="4.444360e-03" style="stop-color:#000000"/>
							<stop  offset="0.0906" style="stop-color:#161616"/>
							<stop  offset="0.2569" style="stop-color:#3A3A3A"/>
							<stop  offset="0.4865" style="stop-color:#767676"/>
							<stop  offset="0.7675" style="stop-color:#CCCCCC"/>
							<stop  offset="0.9145" style="stop-color:#FFFFFF"/>
						</linearGradient>
						<path class="st18" d="M644.43,591.81l6.73,31.52c6.23-1.33,11.94-2.73,17.04-4.16l-6.57-30.79
							C655.9,589.68,650.16,590.82,644.43,591.81z"/>
					</g>
				</g>
				
					<linearGradient id="SVGID_41_" gradientUnits="userSpaceOnUse" x1="644.4308" y1="372.1418" x2="668.2008" y2="372.1418" gradientTransform="matrix(1 0 0 -1 0 978)">
					<stop  offset="4.444360e-03" style="stop-color:#000000"/>
					<stop  offset="0.9145" style="stop-color:#000000"/>
				</linearGradient>
				<path class="st19" d="M644.43,591.81l6.73,31.52c6.23-1.33,11.94-2.73,17.04-4.16l-6.57-30.79
					C655.9,589.68,650.16,590.82,644.43,591.81z"/>
				<g>
					<g>
						<defs>
							<polygon id="SVGID_42_" points="59.73,83.06 60.73,83.06 59.73,84.06 							"/>
						</defs>
						<defs>
							<polygon id="SVGID_43_" points="57.73,81.06 56.73,81.06 57.73,80.06 							"/>
						</defs>
						<clipPath id="SVGID_44_">
							<use xlink:href="#SVGID_42_"  style="overflow:visible;"/>
						</clipPath>
						<clipPath id="SVGID_45_" class="st20">
							<use xlink:href="#SVGID_43_"  style="overflow:visible;"/>
						</clipPath>
						
							<linearGradient id="SVGID_46_" gradientUnits="userSpaceOnUse" x1="609.9008" y1="366.1268" x2="633.2308" y2="366.1268" gradientTransform="matrix(1 0 0 -1 0 978)">
							<stop  offset="4.444360e-03" style="stop-color:#000000"/>
							<stop  offset="0.0906" style="stop-color:#161616"/>
							<stop  offset="0.2569" style="stop-color:#3A3A3A"/>
							<stop  offset="0.4865" style="stop-color:#767676"/>
							<stop  offset="0.7675" style="stop-color:#CCCCCC"/>
							<stop  offset="0.9145" style="stop-color:#FFFFFF"/>
						</linearGradient>
						<path class="st21" d="M609.9,596.13l3.8,33.15c6.82-0.75,13.35-1.63,19.53-2.62l-6.87-32.2
							C620.85,595.14,615.36,595.69,609.9,596.13z"/>
					</g>
				</g>
				
					<linearGradient id="SVGID_47_" gradientUnits="userSpaceOnUse" x1="609.9008" y1="366.1268" x2="633.2308" y2="366.1268" gradientTransform="matrix(1 0 0 -1 0 978)">
					<stop  offset="4.444360e-03" style="stop-color:#000000"/>
					<stop  offset="0.9145" style="stop-color:#000000"/>
				</linearGradient>
				<path class="st22" d="M609.9,596.13l3.8,33.15c6.82-0.75,13.35-1.63,19.53-2.62l-6.87-32.2
					C620.85,595.14,615.36,595.69,609.9,596.13z"/>
				<g>
					<g>
						<defs>
							<polygon id="SVGID_48_" points="59.73,83.06 60.73,83.06 59.73,84.06 							"/>
						</defs>
						<defs>
							<polygon id="SVGID_49_" points="57.73,81.06 56.73,81.06 57.73,80.06 							"/>
						</defs>
						<clipPath id="SVGID_50_">
							<use xlink:href="#SVGID_48_"  style="overflow:visible;"/>
						</clipPath>
						<clipPath id="SVGID_51_" class="st23">
							<use xlink:href="#SVGID_49_"  style="overflow:visible;"/>
						</clipPath>
						
							<linearGradient id="SVGID_52_" gradientUnits="userSpaceOnUse" x1="534.7708" y1="364.1368" x2="554.7308" y2="364.1368" gradientTransform="matrix(1 0 0 -1 0 978)">
							<stop  offset="4.444360e-03" style="stop-color:#000000"/>
							<stop  offset="0.0906" style="stop-color:#161616"/>
							<stop  offset="0.2569" style="stop-color:#3A3A3A"/>
							<stop  offset="0.4865" style="stop-color:#767676"/>
							<stop  offset="0.7675" style="stop-color:#CCCCCC"/>
							<stop  offset="0.9145" style="stop-color:#FFFFFF"/>
						</linearGradient>
						<path class="st24" d="M538.69,596.14l-3.92,34.29c6.73,0.56,13.96,0.94,19.96,1.15v-34.51
							C549.73,596.84,543.9,596.53,538.69,596.14z"/>
					</g>
				</g>
				
					<linearGradient id="SVGID_53_" gradientUnits="userSpaceOnUse" x1="534.7708" y1="364.1368" x2="554.7308" y2="364.1368" gradientTransform="matrix(1 0 0 -1 0 978)">
					<stop  offset="4.444360e-03" style="stop-color:#000000"/>
					<stop  offset="0.9145" style="stop-color:#000000"/>
				</linearGradient>
				<path class="st25" d="M538.69,596.14l-3.92,34.29c6.73,0.56,13.96,0.94,19.96,1.15v-34.51
					C549.73,596.84,543.9,596.53,538.69,596.14z"/>
				<g>
					<g>
						<defs>
							<polygon id="SVGID_54_" points="59.73,83.06 60.73,83.06 59.73,84.06 							"/>
						</defs>
						<defs>
							<polygon id="SVGID_55_" points="57.73,81.06 56.73,81.06 57.73,80.06 							"/>
						</defs>
						<clipPath id="SVGID_56_">
							<use xlink:href="#SVGID_54_"  style="overflow:visible;"/>
						</clipPath>
						<clipPath id="SVGID_57_" class="st26">
							<use xlink:href="#SVGID_55_"  style="overflow:visible;"/>
						</clipPath>
						
							<linearGradient id="SVGID_58_" gradientUnits="userSpaceOnUse" x1="432.0808" y1="383.2469" x2="451.0008" y2="383.2469" gradientTransform="matrix(1 0 0 -1 0 978)">
							<stop  offset="4.444360e-03" style="stop-color:#000000"/>
							<stop  offset="0.0906" style="stop-color:#161616"/>
							<stop  offset="0.2569" style="stop-color:#3A3A3A"/>
							<stop  offset="0.4865" style="stop-color:#767676"/>
							<stop  offset="0.7675" style="stop-color:#CCCCCC"/>
							<stop  offset="0.9145" style="stop-color:#FFFFFF"/>
						</linearGradient>
						<path class="st27" d="M436.96,578.58c-0.33,2.34-4.88,27.19-4.88,27.19c4.25,1.83,8.53,3.54,12.83,5.15l6.09-28.57
							C442.01,580.14,436.96,578.58,436.96,578.58z"/>
					</g>
				</g>
				
					<linearGradient id="SVGID_59_" gradientUnits="userSpaceOnUse" x1="432.0808" y1="383.2469" x2="451.0008" y2="383.2469" gradientTransform="matrix(1 0 0 -1 0 978)">
					<stop  offset="4.444360e-03" style="stop-color:#000000"/>
					<stop  offset="0.9145" style="stop-color:#000000"/>
				</linearGradient>
				<path class="st28" d="M436.96,578.58c-0.33,2.34-4.88,27.19-4.88,27.19c4.25,1.83,8.53,3.54,12.83,5.15l6.09-28.57
					C442.01,580.14,436.96,578.58,436.96,578.58z"/>
				<g>
					<g>
						<defs>
							<polygon id="SVGID_60_" points="59.73,83.06 60.73,83.06 59.73,84.06 							"/>
						</defs>
						<defs>
							<polygon id="SVGID_61_" points="57.73,81.06 56.73,81.06 57.73,80.06 							"/>
						</defs>
						<clipPath id="SVGID_62_">
							<use xlink:href="#SVGID_60_"  style="overflow:visible;"/>
						</clipPath>
						<clipPath id="SVGID_63_" class="st29">
							<use xlink:href="#SVGID_61_"  style="overflow:visible;"/>
						</clipPath>
						
							<linearGradient id="SVGID_64_" gradientUnits="userSpaceOnUse" x1="497.0208" y1="367.5269" x2="520.5109" y2="367.5269" gradientTransform="matrix(1 0 0 -1 0 978)">
							<stop  offset="4.444360e-03" style="stop-color:#000000"/>
							<stop  offset="0.0906" style="stop-color:#161616"/>
							<stop  offset="0.2569" style="stop-color:#3A3A3A"/>
							<stop  offset="0.4865" style="stop-color:#767676"/>
							<stop  offset="0.7675" style="stop-color:#CCCCCC"/>
							<stop  offset="0.9145" style="stop-color:#FFFFFF"/>
						</linearGradient>
						<path class="st30" d="M504.04,592.45l-7.02,32.91c6.56,1.24,13.09,2.27,19.59,3.13l3.9-34
							C514.8,593.87,509.31,593.19,504.04,592.45z"/>
					</g>
				</g>
				
					<linearGradient id="SVGID_65_" gradientUnits="userSpaceOnUse" x1="497.0208" y1="367.5269" x2="520.5109" y2="367.5269" gradientTransform="matrix(1 0 0 -1 0 978)">
					<stop  offset="4.444360e-03" style="stop-color:#000000"/>
					<stop  offset="0.9145" style="stop-color:#000000"/>
				</linearGradient>
				<path class="st31" d="M504.04,592.45l-7.02,32.91c6.56,1.24,13.09,2.27,19.59,3.13l3.9-34
					C514.8,593.87,509.31,593.19,504.04,592.45z"/>
				<g>
					<g>
						<defs>
							<polygon id="SVGID_66_" points="59.73,83.06 60.73,83.06 59.73,84.06 							"/>
						</defs>
						<defs>
							<polygon id="SVGID_67_" points="57.73,81.06 56.73,81.06 57.73,80.06 							"/>
						</defs>
						<clipPath id="SVGID_68_">
							<use xlink:href="#SVGID_66_"  style="overflow:visible;"/>
						</clipPath>
						<clipPath id="SVGID_69_" class="st32">
							<use xlink:href="#SVGID_67_"  style="overflow:visible;"/>
						</clipPath>
						
							<linearGradient id="SVGID_70_" gradientUnits="userSpaceOnUse" x1="572.7308" y1="363.5219" x2="595.4808" y2="363.5219" gradientTransform="matrix(1 0 0 -1 0 978)">
							<stop  offset="4.444360e-03" style="stop-color:#000000"/>
							<stop  offset="0.0906" style="stop-color:#161616"/>
							<stop  offset="0.2569" style="stop-color:#3A3A3A"/>
							<stop  offset="0.4865" style="stop-color:#767676"/>
							<stop  offset="0.7675" style="stop-color:#CCCCCC"/>
							<stop  offset="0.9145" style="stop-color:#FFFFFF"/>
						</linearGradient>
						<path class="st33" d="M572.73,597.5v34.26c8-0.09,15.42-0.4,22.75-0.88l-3.9-33.69C585.22,597.43,578.73,597.53,572.73,597.5z
							"/>
					</g>
				</g>
				
					<linearGradient id="SVGID_71_" gradientUnits="userSpaceOnUse" x1="572.7308" y1="363.5219" x2="595.4808" y2="363.5219" gradientTransform="matrix(1 0 0 -1 0 978)">
					<stop  offset="4.444360e-03" style="stop-color:#000000"/>
					<stop  offset="0.9145" style="stop-color:#000000"/>
				</linearGradient>
				<path class="st34" d="M572.73,597.5v34.26c8-0.09,15.42-0.4,22.75-0.88l-3.9-33.69C585.22,597.43,578.73,597.53,572.73,597.5z"
					/>
				<g>
					<g>
						<defs>
							<polygon id="SVGID_72_" points="59.73,83.06 60.73,83.06 59.73,84.06 							"/>
						</defs>
						<defs>
							<polygon id="SVGID_73_" points="57.73,81.06 56.73,81.06 57.73,80.06 							"/>
						</defs>
						<clipPath id="SVGID_74_">
							<use xlink:href="#SVGID_72_"  style="overflow:visible;"/>
						</clipPath>
						<clipPath id="SVGID_75_" class="st35">
							<use xlink:href="#SVGID_73_"  style="overflow:visible;"/>
						</clipPath>
						
							<linearGradient id="SVGID_76_" gradientUnits="userSpaceOnUse" x1="462.2808" y1="374.0569" x2="486.0108" y2="374.0569" gradientTransform="matrix(1 0 0 -1 0 978)">
							<stop  offset="4.444360e-03" style="stop-color:#000000"/>
							<stop  offset="0.0906" style="stop-color:#161616"/>
							<stop  offset="0.2569" style="stop-color:#3A3A3A"/>
							<stop  offset="0.4865" style="stop-color:#767676"/>
							<stop  offset="0.7675" style="stop-color:#CCCCCC"/>
							<stop  offset="0.9145" style="stop-color:#FFFFFF"/>
						</linearGradient>
						<path class="st36" d="M468.78,586.38l-6.5,30.45c5.63,1.72,11.28,3.28,16.93,4.67l6.8-31.86
							C479.76,588.56,473.99,587.45,468.78,586.38z"/>
					</g>
				</g>
				
					<linearGradient id="SVGID_77_" gradientUnits="userSpaceOnUse" x1="462.2808" y1="374.0569" x2="486.0108" y2="374.0569" gradientTransform="matrix(1 0 0 -1 0 978)">
					<stop  offset="4.444360e-03" style="stop-color:#000000"/>
					<stop  offset="0.9145" style="stop-color:#000000"/>
				</linearGradient>
				<path class="st37" d="M468.78,586.38l-6.5,30.45c5.63,1.72,11.28,3.28,16.93,4.67l6.8-31.86
					C479.76,588.56,473.99,587.45,468.78,586.38z"/>
			</g>
			<g>
				<g>
					<circle class="st38" cx="424.13" cy="375.65" r="71.01"/>
					<g>
						<path class="st39" d="M414.81,417.83c0-5.75,3.99-9.9,9.42-9.9c5.75,0,9.43,4.15,9.43,9.9c0,5.59-3.67,9.9-9.43,9.9
							C418.64,427.74,414.81,423.43,414.81,417.83z"/>
						<path class="st39" d="M432.42,323.55c-0.14-0.14-0.32-0.49-0.51-0.49h-15.34c-0.19,0-0.38,0.35-0.51,0.49
							c-0.13,0.14-0.21,0.46-0.2,0.66l2.24,76.42c0.01,0.39,0.33,0.43,0.72,0.43h10.86c0.39,0,0.71,0.02,0.72-0.37l2.24-76.65
							C432.62,323.85,432.55,323.69,432.42,323.55z"/>
					</g>
				</g>
				<g>
					<g>
						<defs>
							<polygon id="SVGID_78_" points="59.73,83.06 60.73,83.06 59.73,84.06 							"/>
						</defs>
						<defs>
							<polygon id="SVGID_79_" points="57.73,81.06 56.73,81.06 57.73,80.06 							"/>
						</defs>
						<clipPath id="SVGID_80_">
							<use xlink:href="#SVGID_78_"  style="overflow:visible;"/>
						</clipPath>
						<clipPath id="SVGID_81_" class="st40">
							<use xlink:href="#SVGID_79_"  style="overflow:visible;"/>
						</clipPath>
						
							<linearGradient id="SVGID_82_" gradientUnits="userSpaceOnUse" x1="509.9557" y1="605.0602" x2="651.9778" y2="605.0602" gradientTransform="matrix(0.9794 0.2018 0.2018 -0.9794 -272.9519 874.4167)">
							<stop  offset="4.444360e-03" style="stop-color:#000000"/>
							<stop  offset="0.0906" style="stop-color:#161616"/>
							<stop  offset="0.2569" style="stop-color:#3A3A3A"/>
							<stop  offset="0.4865" style="stop-color:#767676"/>
							<stop  offset="0.7675" style="stop-color:#CCCCCC"/>
							<stop  offset="0.9145" style="stop-color:#FFFFFF"/>
						</linearGradient>
						<path class="st41" d="M441.84,432.97c-20.16-15.43-36.63-34.01-52.8-53.47c-10.41-12.52-18.98-26.31-26.55-40.67
							c-4.29,6.92-7.46,14.69-9.2,23.13c-7.91,38.41,16.81,75.96,55.22,83.87c15.46,3.18,30.78,1.07,44.09-5.08
							C448.96,438.19,445.32,435.64,441.84,432.97z"/>
					</g>
				</g>
				
					<linearGradient id="SVGID_83_" gradientUnits="userSpaceOnUse" x1="509.9557" y1="605.0602" x2="651.9778" y2="605.0602" gradientTransform="matrix(0.9794 0.2018 0.2018 -0.9794 -272.9519 874.4167)">
					<stop  offset="4.444360e-03" style="stop-color:#000000"/>
					<stop  offset="0.9145" style="stop-color:#000000"/>
				</linearGradient>
				<path class="st42" d="M441.84,432.97c-20.16-15.43-36.63-34.01-52.8-53.47c-10.41-12.52-18.98-26.31-26.55-40.67
					c-4.29,6.92-7.46,14.69-9.2,23.13c-7.91,38.41,16.81,75.96,55.22,83.87c15.46,3.18,30.78,1.07,44.09-5.08
					C448.96,438.19,445.32,435.64,441.84,432.97z"/>
			</g>
			<g>
				<g>
					<path class="st43" d="M587.31,722.65c-2,0.33-4.11-0.96-4.87-2.85c-1.77-4.38,3.24-8.89,6.94-5.19
						C591.75,717,590.9,722.06,587.31,722.65z"/>
					<path d="M584.05,716.36c0.07-0.25,0.23-0.48,0.52-0.66c0.44-0.28,1.07-0.34,1.54-0.16c0.65,0.25,0.97,1.01,0.68,1.55
						c-0.19,0.36-0.6,0.66-1.08,0.75c-0.66,0.13-1.32-0.26-1.56-0.7C584.02,716.89,583.98,716.61,584.05,716.36z"/>
				</g>
				<g>
					<path class="st43" d="M537.01,722.5c2,0.33,4.11-0.96,4.87-2.85c1.77-4.38-3.24-8.89-6.94-5.19
						C532.56,716.85,533.42,721.9,537.01,722.5z"/>
					<path d="M540.26,716.2c-0.07-0.25-0.23-0.48-0.52-0.66c-0.44-0.28-1.07-0.34-1.54-0.16c-0.65,0.25-0.97,1.01-0.68,1.55
						c0.19,0.36,0.6,0.66,1.08,0.75c0.66,0.13,1.32-0.26,1.56-0.7C540.29,716.73,540.33,716.46,540.26,716.2z"/>
				</g>
			</g>
			<g>
				
					<linearGradient id="SVGID_84_" gradientUnits="userSpaceOnUse" x1="515.0936" y1="245.3737" x2="523.8484" y2="245.3737" gradientTransform="matrix(1 0 0 -1 0 978)">
					<stop  offset="0.0153" style="stop-color:#FAEFE4"/>
					<stop  offset="0.4968" style="stop-color:#FCF8F3"/>
					<stop  offset="1" style="stop-color:#FFFFFF"/>
				</linearGradient>
				<path class="st44" d="M523.49,738.65c-4.79-2.98-7.94-7.36-7.56-13.23c0.02-0.38-0.61-0.47-0.67-0.09
					c-0.91,5.84,1.93,12.44,7.62,14.77C523.74,740.46,524.22,739.11,523.49,738.65z"/>
				
					<linearGradient id="SVGID_85_" gradientUnits="userSpaceOnUse" x1="503.4633" y1="248.2529" x2="509.5069" y2="248.2529" gradientTransform="matrix(1 0 0 -1 0 978)">
					<stop  offset="0.0153" style="stop-color:#FAEFE4"/>
					<stop  offset="0.4968" style="stop-color:#FCF8F3"/>
					<stop  offset="1" style="stop-color:#FFFFFF"/>
				</linearGradient>
				<path class="st45" d="M509.39,737.8c-4.03-4.36-5.08-10.12-3.09-15.69c0.34-0.94-1.22-1.6-1.62-0.68
					c-2.59,5.9-0.94,12.91,4.12,16.97C509.21,738.72,509.76,738.2,509.39,737.8z"/>
			</g>
			<g>
				
					<linearGradient id="SVGID_86_" gradientUnits="userSpaceOnUse" x1="488.4423" y1="253.2206" x2="492.2042" y2="253.2206" gradientTransform="matrix(-1 0 0 -1 1096.4846 978)">
					<stop  offset="0.0153" style="stop-color:#FAEFE4"/>
					<stop  offset="0.4968" style="stop-color:#FCF8F3"/>
					<stop  offset="1" style="stop-color:#FFFFFF"/>
				</linearGradient>
				<path class="st46" d="M604.43,727.37c2.06-1.28,3.41-3.16,3.25-5.69c-0.01-0.16,0.26-0.2,0.29-0.04
					c0.39,2.51-0.83,5.35-3.28,6.35C604.33,728.14,604.12,727.56,604.43,727.37z"/>
				
					<linearGradient id="SVGID_87_" gradientUnits="userSpaceOnUse" x1="483.4377" y1="254.4641" x2="486.0389" y2="254.4641" gradientTransform="matrix(-1 0 0 -1 1096.4846 978)">
					<stop  offset="0.0153" style="stop-color:#FAEFE4"/>
					<stop  offset="0.4968" style="stop-color:#FCF8F3"/>
					<stop  offset="1" style="stop-color:#FFFFFF"/>
				</linearGradient>
				<path class="st47" d="M610.5,727c1.73-1.88,2.18-4.35,1.33-6.75c-0.14-0.41,0.52-0.69,0.7-0.29c1.12,2.54,0.41,5.55-1.77,7.3
					C610.57,727.39,610.34,727.17,610.5,727z"/>
			</g>
			<path class="st38" d="M340.01,340.32l-16.68-11.98c-0.25-0.18-0.59-0.12-0.76,0.13l-21.08,29.35c-0.14,0.2-0.39,0.28-0.62,0.2
				l-27.06-9.28c-0.28-0.1-0.43-0.4-0.35-0.68l6.56-21.12c0.11-0.37,0.57-0.51,0.87-0.26l17.14,13.91c0.22,0.18,0.54,0.16,0.74-0.05
				l23.41-24.4c0.23-0.24,0.63-0.22,0.83,0.05l17.75,23.37C341.14,340.04,340.52,340.68,340.01,340.32z"/>
			<path class="st38" d="M367.34,302.3l-33.06-27.81c-0.19-0.16-0.27-0.42-0.19-0.66l8.18-24.59c0.14-0.43-0.22-0.86-0.67-0.8
				l-27.7,4.23c-0.45,0.07-0.81-0.36-0.67-0.8l6.56-19.73c0.14-0.43-0.22-0.86-0.67-0.8l-18.7,2.68c-0.28,0.04-0.5,0.27-0.52,0.56
				l-2.76,36.1c-0.03,0.42,0.36,0.75,0.77,0.63l29.75-8.13c0.47-0.13,0.89,0.32,0.74,0.78l-5.23,15.72
				c-0.09,0.28,0.03,0.59,0.29,0.73l43.18,22.88C367.3,303.64,367.9,302.77,367.34,302.3z"/>
			<path class="st38" d="M406.23,283.33l-14.57-35.7c-0.01-0.04-0.01-0.08,0.01-0.11l14.98-19.14c0.03-0.04,0.03-0.09,0-0.12
				l-16.97-25.63c-0.03-0.05-0.02-0.11,0.03-0.15l12.69-8.4c0.06-0.04,0.13-0.01,0.16,0.05l14.82,36.32
				c0.01,0.04,0.01,0.08-0.01,0.11l-15,19.16c-0.02,0.02-0.03,0.05-0.02,0.08l4.08,33.49C406.44,283.4,406.27,283.45,406.23,283.33z
				"/>
		</g>
	</g>
</g>
<g id="object">
</g>
</svg>
