<?xml version="1.0" encoding="utf-8"?>
<!-- Generator: Adobe Illustrator 24.0.0, SVG Export Plug-In . SVG Version: 6.00 Build 0)  -->
<svg version="1.1" xmlns="http://www.w3.org/2000/svg" xmlns:xlink="http://www.w3.org/1999/xlink" x="0px" y="0px"
	 viewBox="0 0 1100 800" style="enable-background:new 0 0 1100 800;" xml:space="preserve">
<style type="text/css">
	.st0{fill:#ECE4FA;}
	.st1{opacity:0.6;}
	.st2{fill:#F7F7F7;}
	.st3{fill:#F4D0C1;}
	.st4{fill:#BCBEC0;}
	.st5{fill:#E4D2B8;}
	.st6{fill:#3B455A;}
	.st7{fill:#2A313F;}
	.st8{fill:#764BCB;}
	.st9{fill:#C1755D;}
	.st10{fill:#2E3644;}
	.st11{fill:#EFC4B1;}
	.st12{fill:#D7E8F4;}
	.st13{fill:#E3E3E4;}
	.st14{fill:#305399;}
	.st15{fill:#FFFFFF;}
	.st16{fill:#CCCDCE;}
	.st17{fill:#9D9D9E;}
	.st18{fill:#EAEAEA;}
	.st19{fill:#5D21D2;}
	.st20{fill:#E3BC24;}
	.st21{opacity:0.12;}
	.st22{fill:#000100;}
	.st23{fill:#2B292A;}
	.st24{fill:#A9A9AA;}
	.st25{fill:#587BC9;}
	.st26{fill:#F4BDB8;}
</style>
<g id="background">
	<path class="st0" d="M1026,743c-58.94,86.94-201.18,52.43-539,36c-280.08-13.62-428.42-0.34-457-78c-11.82-32.12,5.38-64.72,3-175
		c-1.32-61.06-7.88-110.58-13-142c4.67-48.33,9.33-96.67,14-145C11.33,167.67,37.24,89.99,97,48c55.56-39.04,130.56-40.33,189-3
		c119.91,27.72,213.67,25.29,277,18c51.57-5.94,70.47-13.65,187-29c9.78-1.29,93.29-11.86,201-5c57.63,3.67,82.32,9.79,99,29
		c15.31,17.65,13.85,34.8,16,106c3.99,132.25,9.4,126.81,5,167c-7.21,65.89-27.06,67.16-23,118c3.54,44.35,19.88,58.86,22,103
		c2.03,42.29-10.67,77.11-21,99C1049.93,674.9,1047.6,711.14,1026,743z"/>
</g>
<g id="shadow">
	<g class="st1">
		<path class="st2" d="M502.99,624.12c-27.11,0.08-54.22,0.76-81.28,3.89c-10.2,1.18-20.19,3.78-30.42,4.82
			c-20.43,2.09-40.49,5.99-60.99,7.79c-16.51,1.45-33.09,2.3-49.55,4.14c-15.43,1.72-32.52,1.33-47.83-1.52
			c-11.34-2.11-22.73-3.3-33.87-6.68c-12.47-3.79-26.01-6.5-39.01-6.4c-18.53,0.14-36.57,0.16-54.3,6.85
			c-6.22,2.35-13.84,6.21-18.57,11.14c-10.82,11.28-12.28,39.43-1.48,51.13c18.19,19.69,57.03,27.42,82.53,27.79
			c27.95,0.4,55.09-1.76,83.08-3.03c26.01-1.18,51.95-2.86,78-2.8c53.2,0.12,106.41,0,159.52-3.7c49.89-3.47,99.91-2.28,149.92-2.28
			c51.28,0,102.21,0.42,153.11,7.51c22.18,3.09,44.78,4.17,67.07,6.33c19.96,1.94,39.15-0.04,59.03-1.83
			c16.7-1.5,33.29-5.96,48.45-13.5c12.01-5.97,33.41-24.51,37.1-38.75c10.32-39.93-145.49-38.97-169.41-38.88
			c-26.76,0.1-53.74,1.02-80.48-0.04c-11.25-0.45-22.33-2.73-33.31-5.24c-10.93-2.5-21.95-1.86-33.04-2.91
			c-46.24-4.37-92.59-3.73-138.98-3.73C533.2,624.21,518.09,624.07,502.99,624.12z"/>
	</g>
</g>
<g id="object">
	<g>
		<g>
			<polygon class="st3" points="263.73,197.89 265.25,181.63 258.33,180.68 254.82,191.58 251.75,189.61 252.15,203.69 
				259.21,205.65 			"/>
			<polygon class="st4" points="160.87,279.67 233.36,252.38 251.49,201.69 260.62,205.02 259.28,267.92 191.43,317.28 			"/>
		</g>
		<g id="XMLID_132_">
			<polygon class="st5" points="548.3,336.95 547.51,345.08 532.55,348.44 525.12,341.13 526.33,331.71 534.34,332.29 
				534.86,330.25 537.68,328.91 			"/>
		</g>
		<g>
			<g>
				<g>
					<polygon class="st6" points="899.64,463.45 902.84,537.57 893.47,663.6 879.45,664.59 862.42,550.13 838.86,453.27 					"/>
					<polygon class="st7" points="879.95,670.5 895.65,677 902.69,668.88 894.57,661.84 879.41,662.92 					"/>
				</g>
				<g>
					<polygon class="st6" points="800.41,437.22 797.34,493.25 806.46,659.83 820.5,660.53 841.54,551.28 860.09,431.46 					"/>
					<polygon class="st7" points="820.12,666.45 804.57,673.28 797.36,665.31 805.33,658.1 820.5,658.86 					"/>
				</g>
				<g>
					<path class="st8" d="M882.02,272.18l-43.8-4.69c0,0-24.37,2.6-40.9,60.47c-9.2,32.19-12,82.91-12.67,121.58
						c1.03,5.52,7.04,29.68,32.45,25.58c43.64-7.04,66.86-14.08,85.87-10.56c16.19,3.52,14.82-18.77,13.04-35.78l-6.45-52.63
						L882.02,272.18z"/>
				</g>
				<g>
					<path class="st9" d="M873.56,217.66c-11.04-2.43-22.4-4.61-33.45-2.43c-2.42,0.48-5.02,1.32-6.33,3.41
						c-0.51,0.81-0.78,1.74-1.03,2.67c-2.79,10.37-6.33,25.73,0.5,35.28c1.3,1.82,3.05,3.27,4.93,4.44c2.51,1.57,5.29,2.64,8.17,3.2
						c-0.59,2.58-1.42,5.1-2.47,7.53c2.53,3.81,14.32,4.27,16.5,0.61c0.12-3.16,0.24-6.32,0.37-9.48c1.44-0.58,2.82-1.28,4.12-2.14
						c5.04-3.32,8.36-8.35,10.29-13.99c2.1-6.13,5.05-11.97,6.97-18.22c0.7-2.28,1.25-4.88,0.05-6.94c-1.28-2.19-4.03-2.94-6.5-3.49
						C874.96,217.97,874.26,217.81,873.56,217.66z"/>
					<path class="st10" d="M836.82,223.58c5.46-3.51,13.64-5.02,18.77-4.65c15.51,1.12,21.19,12.51,22.02,26.78
						c4.27-5.43,12.29-12.26,12.78-19.25c0.4-5.72-0.4-13.52-3.6-18.46c-3-4.62-10.67-7.16-15.23-9.84c-4.3-2.52-8.6-5.05-12.9-7.57
						c-0.89-0.53-1.81-1.06-2.83-1.24c-1.21-0.21-2.44,0.1-3.63,0.41c-10.16,2.63-20.32,5.25-30.48,7.88
						c-1.95,0.5-4.18,1.24-4.89,3.12c-0.44,1.15-0.18,2.43,0.08,3.62c1.15,5.27,3.37,10.66,3.92,16.01
						c0.62,3.1,2.47,19.01,7.97,17.18c1.61-2.64,1.86-5.89,3.11-8.72C832.84,226.76,834.61,225.01,836.82,223.58z"/>
				</g>
			</g>
		</g>
		<g id="XMLID_113_">
			<g id="XMLID_115_">
				<g id="XMLID_129_">
					<g id="XMLID_131_">
						<path class="st7" d="M689.24,644.38c1.5-1.65,3.24-2.55,5.21-2.24c1.89,0.3,3.6,1.58,4.38,3.3c0.53,1.17,0.65,2.48,0.75,3.75
							c0.55,6.61,0.5,22.31-8.31,24.57c-3.7,0.95-6.76-1.68-7.75-5C682.03,663.76,684.24,649.89,689.24,644.38z"/>
					</g>
					<g id="XMLID_130_">
						<path class="st11" d="M686.11,544.64l0.46,40.33c-0.54,17.91,2.26,35.93,1.72,53.84c-0.12,4.12-1.2,8.46-0.16,12.55
							c1.02,3.99,4.26,4.7,7.59,2.68c4.46-2.71,3.74-9.04,4.49-13.65c2.04-12.68,4.44-25.31,6.57-37.98
							c1.05-6.21-1.11-14.92-0.64-21.2l6.52-33.8L686.11,544.64z"/>
					</g>
				</g>
				<g id="XMLID_128_">
					<polygon class="st6" points="732.18,479.48 714.63,557.44 710.9,631.07 683.07,630.45 675.5,424.49 729.46,425.47 					"/>
				</g>
				<g id="XMLID_123_">
					<g id="XMLID_125_">
						<g id="XMLID_127_">
							<path class="st7" d="M649.43,642.92c1.56-1.56,3.34-2.36,5.29-1.93c1.88,0.41,3.52,1.8,4.22,3.56
								c0.48,1.2,0.54,2.52,0.59,3.8c0.26,6.65-0.46,22.36-9.33,24.1c-3.73,0.73-6.67-2.08-7.51-5.47
								C641.42,661.89,644.21,648.13,649.43,642.92z"/>
						</g>
						<g id="XMLID_126_">
							<path class="st11" d="M664.1,550.3l-2.36,40.26c-0.19,11.19-1.68,22.29-2.84,33.41c-1.08,10.32,0.6,21.08-4.8,30.47
								c-1.69,2.94-5.11,4.9-7.5,1.33c-1.84-2.76-0.75-7.36-1.1-10.48c-1.44-12.77-3.24-25.49-4.77-38.25
								c-0.75-6.25,1.81-14.85,1.64-21.15l-4.91-34.06L664.1,550.3z"/>
						</g>
					</g>
					<g id="XMLID_124_">
						<polygon class="st6" points="628.88,474.71 626.61,550.39 638.49,626.93 666.8,627.78 665.55,544.95 680.53,476.25 
							685.56,431.29 640.64,425.99 						"/>
					</g>
				</g>
				<g id="XMLID_122_">
					<polygon class="st12" points="664.42,271.1 712.81,269.94 740.87,322.13 730.9,371.01 729.12,429.5 660.09,430.44 
						637.37,426.75 643.4,364.25 639.95,280.76 					"/>
				</g>
				<g id="XMLID_121_">
					<polygon class="st12" points="656.79,305.48 639.32,359.05 613.24,368.41 541.88,349.19 551.48,334.35 614.23,336.4 
						640.04,283.1 					"/>
				</g>
				<g id="XMLID_116_">
					<g id="XMLID_120_">
						<path class="st11" d="M667.45,230.55c7.3-21.21,35.3-13.26,41.07,5.62c3.77,12.32-5.75,28.31-18.51,31.85
							c-0.06,0.48-0.1,0.94-0.1,1.32c-0.01,1.98-0.25,3.93-0.55,5.9c-0.11,0.74-11.28-1.41-12.53-1.66
							c-0.44-0.09-0.92-0.2-1.16-0.57c-0.45-0.7,0.28-2.77,0.36-3.55c0.1-0.92,0.19-1.84,0.29-2.76
							c-6.3-3.07-10.27-9.62-11.38-16.28C663.83,243.73,665.25,236.92,667.45,230.55z"/>
					</g>
					<g id="XMLID_117_">
						<g id="XMLID_119_">
							<path class="st10" d="M685.72,211.38c1.5,1.52,2.09,3.65,2.52,5.69c0.26,1.22,0.48,2.48,0.22,3.69
								c-1.04,4.82-5.82,4.56-9.51,6.12c-4.55,1.91-8.48,5.44-11.03,9.5c-3.99,6.35-2.2,14.53-0.58,21.54
								c0.57,2.47,1.72,6.14-0.2,8.35c-1.95,2.24-6.45,1.89-8.78,0.74c-2.13-1.05-3.88-3-6.22-3.39c-2.48-0.41-5.82,0.67-6.97-1.6
								c-0.32-0.63-0.35-1.4-0.76-1.98c-1.37-1.96-4.77,0.33-6.7-1.04c-1.19-0.85-1.18-2.66-0.78-4.09c0.4-1.43,1.08-2.88,0.8-4.33
								c-0.24-1.25-1.14-2.24-1.7-3.38c-1.1-2.25-0.72-5.17,0.92-7.07c3.05-3.53,8.95-2.86,12.22-6.18c1.7-1.73,2.36-4.22,3-6.58
								s1.4-4.85,3.22-6.45c2.25-1.98,5.49-1.64,7.71-3.98c1.3-1.38,2.17-3.17,3.63-4.37c1.93-1.58,5.69-2.79,8.09-3.6
								C678.62,207.68,682.87,208.49,685.72,211.38z"/>
						</g>
						<g id="XMLID_118_">
							<path class="st10" d="M703.43,245.23c0.13,6.98-3.34,14.53-0.12,20.67c3.25,6.2,11.34,7.32,18.23,7.64
								c1.13,0.05,15.69,1.31,15.75,1.03c1.09-4.86,2.22-9.82,4.76-14.09c2.54-4.27,6.79-7.81,11.66-8.11
								c-1.4-0.24-2.11-1.96-1.95-3.41c0.16-1.45,0.91-2.76,1.35-4.15c1.07-3.42,0.03-7.41-2.55-9.82
								c-5.15-4.8-14.48-2.81-18.89-8.32c-2.74-3.42-2.41-8.37-3.84-12.55c-2.77-8.07-11.6-9.75-18.21-13.4
								c-6.97-3.85-13.53-5.95-21.57-4.61c-9.97,1.66-17.38,11.81-13.54,21.36c4.93,12.25,24.65,11.19,28.34,23.63
								C703.23,242.46,703.4,243.83,703.43,245.23z"/>
						</g>
					</g>
				</g>
			</g>
			<g id="XMLID_114_">
				<polygon class="st13" points="698.5,270.82 683.48,292.04 676.42,291.46 664.66,269.94 				"/>
			</g>
		</g>
		<g>
			<polygon class="st7" points="310.08,654.63 308.98,663.2 325.01,673.97 334.68,666.51 327.21,656.84 311.18,646.06 			"/>
			<g>
				<polygon class="st6" points="309.54,651.76 321.9,542.48 307.02,420.14 310.37,394.12 376.83,391.59 379.22,433.95 
					368.07,542.65 326.1,657.34 				"/>
			</g>
			<g>
				<polygon class="st6" points="425.59,403.84 425.77,514.12 403.57,656.08 387.59,655.92 378.81,524.64 358.26,393.24 				"/>
				<polygon class="st7" points="387.62,662.66 404.81,671.47 413.53,662.91 404.98,654.19 387.7,654.02 				"/>
			</g>
			<g>
				<path class="st8" d="M300.15,441.34c0.15-4.78,0.42-8.77,0.46-10.19c0.34-12.82,1.48-25.61,3.09-38.34
					c1.44-11.41,3.25-39.72,5.21-51.06c1.61-9.36,7.23-32.72,11.29-41.4c10.09-21.59,6.97-23.58,51.3-29.99
					c19.43-2.81,24.02,9.3,39.9,23.22c1.57,1.37,1.48,9.55,1.84,11.71c0.64,3.81,1.33,7.62,2.11,11.41c0.62,2.98,1.3,5.95,2.06,8.9
					l0,0c0,0,13.33,60.68,22.15,73.57c8.82,12.89,27.03,30.9-3.44,41.9c-5.4,1.75-10.83,3.41-16.45,4.29c0,0-24.92-2.77-37.74-2.67
					c-11.8,0.09-23.66,1.28-35.26,3.28c-7.76,1.3-15.68,3.18-22.62,6.81c-6.62,3.46-11.4,8.55-18.12,12.13
					c-0.64,0.34-1.33,0.69-2.06,0.59C300.01,464.96,299.82,451.4,300.15,441.34z"/>
			</g>
			<g>
				<path class="st3" d="M371.53,276.45c-2.24,1.1-7.52,1.5-13.02-0.66c-1.11-0.43-1.86-1.5-1.84-2.7c0.04-3.34,0.31-6.69,0.8-10
					c-4.13-1.45-8.9-3.63-9.62-7.95c-0.23-1.36,0.01-2.75,0.24-4.11c0.97-5.62,1.94-11.24,2.91-16.85c0.34-1.94,0.69-3.94,1.75-5.61
					c1.85-2.92,5.45-4.2,8.86-4.79c8.7-1.51,18.18,0.37,24.92,6.07c1.8,1.52,3.42,3.34,4.21,5.55c1.22,3.41,0.31,7.17-0.61,10.68
					c-0.85,3.23-1.7,6.47-2.55,9.7c-0.98,3.72-2.39,7.95-5.97,9.34c-1.9,0.74-4.15,0.52-5.87,1.62
					C372.71,268.69,373.11,273.21,371.53,276.45z"/>
				<path class="st10" d="M421.74,220.42c0.85-1.4,1.77-2.76,2.8-4.03c2.23-2.75,4.98-5.11,6.77-8.16c1.79-3.05,2.43-7.19,0.27-10
					c-1.39-1.81-3.65-2.72-5.84-3.37c-7.22-2.13-15.02-2.27-22.32-0.41c-6.95,1.77-13.17,4.7-20.17,2.09
					c-6.57-2.45-11.32-1.45-18.19,1c-7.44,2.65-17.42,3.28-24.15,7.02c-2.81,1.56-5.05,4.01-6.8,6.71
					c-6.06,9.35-6.09,22.25-0.08,31.64c1.35,2.11,2.96,4.03,4.66,5.87c3.51,3.8,7.7,8.5,12.53,9.91c0.11-4.32-3.82-17.93-0.5-21.47
					c5.26-5.61,17.16-3.66,23.68-2.27c7.12,1.51,13.46,6.55,20.52,7.63c5.08,0.78,11.56-1.72,15.88-4.34
					C416.14,235,418.62,225.55,421.74,220.42z"/>
			</g>
			<polygon class="st8" points="334.68,278.66 307.02,302.89 276.17,367.73 315.14,414.1 321.84,388.17 			"/>
		</g>
		<g>
			<g>
				<polygon class="st14" points="154.99,464.61 92.83,445.68 111.45,551.64 109.42,644.09 109.25,644.71 109.4,644.72 
					109.4,644.92 121.47,645.38 121.48,645.37 121.92,645.4 144.08,561.87 153.3,473.73 153.3,473.73 				"/>
				<polygon class="st7" points="121.09,649.61 108.61,650.01 106.03,660.7 106.35,660.78 106.27,660.79 127.56,671.82 
					137.41,672.35 138.02,661.09 135.27,659.3 				"/>
			</g>
			<g>
				<polygon class="st14" points="202.92,463.9 195.04,647.59 183.02,648.82 165.29,550.89 138.71,453.87 				"/>
				<polygon class="st7" points="195.25,651.83 211.73,659.98 210.66,667.59 181.89,664.92 182.95,653.97 				"/>
			</g>
			<g>
				<path class="st4" d="M77.48,497.57c-2.16-30.95,22.74-130.28,22.74-130.28l0,0c2.67-9.34,4.63-18.82,5.7-28.3
					c0.76-6.75,18.75-83.72,17.41-83.78c13.9,0.62,40.57-3.41,51.12,6.15c0.3,0.27,0.59,0.56,0.86,0.85
					c8.27,8.91,12.96,27.3,17.07,38.58c5.4,14.82,9.66,30.05,12.7,45.53c2.67,13.53,4.41,27.22,5.76,40.94
					c1.16,11.79,0.84,23.56,1.57,35.18c0.81,12.86,5.06,26.7,8.3,39.14c3.26,12.53,7.29,24.88,12.72,36.64
					c-13.6,6.49-28.9,8.57-43.97,9.05c-15.06,0.48-30.15-0.55-45.21,0.11c-12.73,0.56-25.59,2.31-38.14,0.11
					C96.13,505.73,86.84,501.57,77.48,497.57L77.48,497.57z"/>
			</g>
			<g>
				<path class="st10" d="M169.92,221.46c6.42,2.95,13.25,10.83,13.05,18.35c-0.09,3.62-2.01,6.49-1.96,10.37
					c0.08,7.65-11.29,15.98-3.99,23.15c3.75,3.69,9.47,4.27,14.72,4.65c0.64,0.05,1.3,0.09,1.88-0.18c0.96-0.44,1.39-1.6,1.34-2.64
					c-0.05-1.05-0.49-2.03-0.83-3.03c-3.62-10.37,1.06-22.72,1.35-33.4c0.29-10.66-2.55-22.08-11.47-28.77
					c-5.8,1.95-10.09,4.54-12.81,10.02L169.92,221.46z"/>
				<path class="st3" d="M167.27,266.99c7.19-1.11,13.17-6.61,16.35-13.15c3.18-6.54,3.9-14.02,3.73-21.29
					c-0.57-24.2-30.55-24.99-42.1-7.37C135.18,240.52,146.36,270.22,167.27,266.99z"/>
			</g>
		</g>
		<g>
			<rect x="751.54" y="409.9" class="st15" width="238.25" height="153.74"/>
			<g>
				<polygon class="st15" points="958.05,357.85 870.67,357.85 783.28,357.85 745.25,402.65 870.67,402.65 996.08,402.65 				"/>
				<rect x="745.25" y="402.65" class="st16" width="250.83" height="16.15"/>
				<polygon class="st17" points="823.58,373 817.42,380.25 917.15,380.25 910.99,373 				"/>
			</g>
			<polygon class="st18" points="751.54,418.8 989.79,441.01 989.79,418.8 			"/>
			<polygon class="st2" points="768.69,457.58 970.25,451.34 965.77,457.58 973.68,465.11 967.18,476.28 973.68,482.63 
				968.88,486.87 978.45,502.69 964.64,514.08 971.42,521.08 770.56,526.7 774.8,519 768.69,519 775.08,501.84 764.63,493.59 
				770.84,485 768.3,480.6 773.39,473 764.63,462.57 			"/>
			<g>
				<path class="st19" d="M810.76,491.27c-1.17-12.77-13.19-27.8-27.24-24.17c-1.04,0.27-1.64,0.92-1.9,1.68
					c-0.4,0.62-0.59,1.4-0.38,2.31c3.27,14.08,6.03,28.27,8.22,42.56c0.27,1.79,1.78,2.68,3.22,2.73c4.51,1.5,10.44-4.4,12.83-7.45
					C809.42,503.97,811.34,497.57,810.76,491.27z M802.56,502.72c-0.93,1.68-2.09,3.23-3.48,4.55c-0.99,0.95-2.08,1.77-3.27,2.45
					c-0.37,0.11-0.69,0.22-0.97,0.31c-2.01-12.6-4.4-25.13-7.22-37.57c9.03-0.3,16.38,10.92,17.22,18.96
					C805.24,495.32,804.46,499.27,802.56,502.72z"/>
				<path class="st19" d="M831.19,469.89c-4.24-1.28-8.87-0.33-12.31,4.04c-5.07,6.45-5.12,16.25-3.31,23.87
					c1.75,7.37,6.35,16.1,14.73,17.08c12.06,1.4,13.49-11.64,13.6-20.6c0.06-5.01-0.79-10.26-2.67-14.91
					C839.36,474.75,835.47,471.18,831.19,469.89z M830.19,508.7c-13.98-3.46-12.18-39.64,2.03-32.35c4.65,2.39,5.44,10.44,5.72,15
					C838.27,496.85,838.63,510.78,830.19,508.7z"/>
				<path class="st19" d="M869.32,470.83c-0.03,0.36-0.06,0.72-0.09,1.08c-0.03,0.37,0.02,0.69,0.09,0.99
					c0.03,6.79,0.06,13.58,0.09,20.38c-0.83-1.87-1.71-3.73-2.62-5.57c-3.3-6.68-6.47-13.71-11.7-19.12
					c-1.83-1.89-5.04-0.27-5.01,2.21c0.16,13.27,0.6,26.54,1.3,39.8c0.2,3.8,6.13,3.68,5.93-0.14c-0.54-10.18-0.91-20.36-1.13-30.54
					c2.08,3.53,3.81,7.33,5.57,10.9c3.42,6.92,6.24,13.97,7.88,21.52c0.72,3.35,5.82,2.33,5.81-0.92
					c-0.06-13.57-0.12-27.14-0.18-40.72C875.23,466.8,869.61,467.1,869.32,470.83z"/>
				<path class="st19" d="M908.47,506.58c-3.42-13.41-7.49-26.62-12.21-39.63c-1.01-2.79-4.83-2.7-5.72,0.13
					c-4.29,13.74-7.31,27.75-9.08,42.03c-0.46,3.75,5.29,5.22,5.75,1.44c0.59-4.78,1.33-9.53,2.21-14.25
					c3.31-0.35,6.62-0.52,9.95-0.5c1.19,4.14,2.34,8.29,3.41,12.47C903.73,511.99,909.41,510.28,908.47,506.58z M890.63,490.26
					c0.9-4.26,1.92-8.49,3.05-12.7c1.38,4.09,2.68,8.2,3.94,12.33C895.29,489.92,892.96,490.05,890.63,490.26z"/>
				<path class="st19" d="M929.7,463.68c-8.68,1.27-17.3,2.83-25.86,4.74c-3.72,0.83-2.01,6.51,1.71,5.68
					c3.65-0.81,7.31-1.56,10.98-2.25c0.2,12.02,0.72,24.03,1.57,36.02c0.27,3.79,6.2,3.68,5.93-0.14
					c-0.87-12.3-1.4-24.61-1.59-36.94c2.46-0.42,4.92-0.82,7.39-1.18C933.56,469.06,933.47,463.13,929.7,463.68z"/>
				<path class="st19" d="M957.35,504.84c-4.69,0.21-9.37,0.41-14.06,0.62L943,492.43c2.32-0.12,4.63-0.11,6.95,0.04
					c1.6,0.1,2.93-1.53,2.9-3.03c-0.04-1.72-1.43-2.79-3.03-2.9c-2.32-0.15-4.63-0.16-6.94-0.04l-0.36-16.63
					c4.1,0.06,8.19,0.19,12.28,0.46c3.81,0.25,3.65-5.68-0.14-5.93c-4.03-0.27-8.06-0.43-12.1-0.49c-5.25-0.07-6.04,2.84-5.94,7.42
					c0.09,4.18,0.18,8.36,0.27,12.54c0.17,7.94,0.35,15.88,0.52,23.82c0,0.13,0.01,0.25,0.01,0.38c0.04,1.74,0.7,3.55,2.88,3.46
					c5.73-0.25,11.46-0.5,17.19-0.76C961.29,510.6,961.17,504.67,957.35,504.84z"/>
			</g>
		</g>
		<polygon class="st9" points="785.66,389.72 786.13,397.77 796.13,409.51 802.15,403.47 797.35,392.8 799.76,388.89 795.77,384.55 
					"/>
		<polygon class="st8" points="838.22,267.48 822.04,272.41 762.91,334.35 759.4,354.76 787.66,401.42 795.29,384.32 783.33,349.83 
			802.33,336.46 827.67,279.45 		"/>
		<g>
			<g>
				<g>
					<g>
						<path class="st20" d="M594.29,264.54c-26.01-5.5-60.89,4.58-71.68,26.38c-5-23.8-43.55-42.92-70.11-44.07
							c-70.1-3.02-103.54,72.58-80.83,129.14c12.22,30.44,31.82,58.18,53.81,83.64c18.41,21.32,66.99,67.75,67.17,67.64
							c0.15,0.16,58.78-32.73,81.93-48.8c27.65-19.19,53.55-41.18,72.98-67.62C683.67,361.72,662.93,279.04,594.29,264.54z"/>
					</g>
					<g class="st21">
						<path class="st22" d="M631.87,414.46c-19.98,19.03-42.52,36.42-66.42,50.77c-23.11,13.88-49.57,25.18-77.28,26.56
							c-13.31,0.67-26.02-1.26-37.73-5.61c19.93,20.14,41.73,40.91,41.85,40.84c0.15,0.16,58.78-32.73,81.93-48.8
							c27.65-19.19,53.55-41.18,72.98-67.62c6.29-8.56,10.85-18.13,13.74-28.18C652.18,393.82,642.35,404.48,631.87,414.46z"/>
					</g>
				</g>
			</g>
			<path class="st15" d="M679.94,438.46c0.93-7.93-4.72-15.12-12.65-16.09c-7.95-0.97-15.18,4.69-16.15,12.64c0,0.01,0,0.01,0,0.02
				l-17.1,60.61c-4.03,14.27-13.77,26.24-26.91,33.09l-48.13,25.07l35.36-41.5c0.59-0.57,1.12-1.2,1.6-1.88l0.02-0.02l0,0
				c1.21-1.73,2.03-3.77,2.3-6.01c0.89-7.31-4.31-13.95-11.62-14.84c-3.32-0.4-6.49,0.46-9.05,2.19l-0.01-0.01l-47.91,34.23
				c-20.71,14.79-34.25,37.6-37.32,62.86l-3.42,28.14c-2.32,19.06,11.25,36.38,30.31,38.7c7.37,0.9,14.46-0.6,20.54-3.85
				c1.66-0.89,3.25-1.9,4.75-3.05l98.43-63.16c13.12-8.42,21.8-22.24,23.68-37.71L679.94,438.46L679.94,438.46z"/>
			<path class="st15" d="M332.54,396.2c1-7.92,8.21-13.55,16.14-12.59c7.95,0.97,13.61,8.2,12.64,16.15c0,0.01,0,0.01,0,0.02
				l2.07,62.94c0.49,14.82,7.07,28.78,18.2,38.58l40.72,35.88l-24.38-48.77c-0.43-0.7-0.8-1.43-1.1-2.2l-0.01-0.02l0,0
				c-0.76-1.97-1.06-4.15-0.79-6.39c0.89-7.31,7.53-12.51,14.84-11.62c3.32,0.4,6.19,2,8.26,4.3l0.01-0.01l38.31,44.71
				c16.56,19.32,24.23,44.71,21.16,69.97l-3.42,28.14c-2.32,19.06-19.65,32.63-38.7,30.31c-7.37-0.9-13.89-4.05-19.02-8.67
				c-1.4-1.26-2.7-2.63-3.88-4.1l-80.41-84.91c-10.72-11.32-15.83-26.82-13.95-42.29L332.54,396.2L332.54,396.2z"/>
		</g>
		<g>
			<g id="XMLID_112_">
				<polygon class="st5" points="674.41,439.28 681.52,443.3 678.5,458.34 668.8,462.15 660.69,457.21 664.48,450.13 662.82,448.83 
					662.75,445.71 				"/>
			</g>
			<g id="XMLID_111_">
				<polygon class="st12" points="714.89,280.91 731.46,308.9 730.69,377.79 687.42,446.61 671.93,438.62 706.03,377.78 
					699.78,330.42 				"/>
			</g>
		</g>
		<polygon class="st23" points="878.1,276.6 919.81,261.6 945.98,199.62 960.4,200.56 943.32,268.68 928.16,285.93 876.76,311.71 		
			"/>
		<polygon class="st9" points="957.31,200.36 961.03,193.2 958.44,178 950.18,180.11 948.85,191.73 944.78,193.85 945.98,199.62 		
			"/>
		<g>
			<g>
				<g>
					
						<ellipse transform="matrix(0.7071 -0.7071 0.7071 0.7071 84.9125 754.239)" class="st4" cx="952.9" cy="274.62" rx="83.74" ry="83.74"/>
				</g>
			</g>
			<g>
				<g>
					
						<ellipse transform="matrix(0.7071 -0.7071 0.7071 0.7071 84.9124 754.239)" class="st16" cx="952.9" cy="274.62" rx="71.07" ry="71.07"/>
				</g>
			</g>
			<g>
				<g>
					<path class="st17" d="M989.98,213.9c7.1,11.04,11.22,24.17,11.25,38.26c0.07,39.25-31.69,71.12-70.94,71.19
						c-13.63,0.02-26.37-3.79-37.2-10.43c12.66,19.7,34.79,32.73,59.94,32.68c39.25-0.07,71.01-31.94,70.94-71.19
						C1023.92,248.8,1010.33,226.37,989.98,213.9z"/>
				</g>
			</g>
			<g>
				<g>
					<path class="st2" d="M894.3,281.23c-0.06-34.65,27.98-62.78,62.62-62.84c20.25-0.04,38.27,9.53,49.77,24.41
						c-10.87-18.79-31.19-31.41-54.45-31.37c-34.65,0.06-62.68,28.2-62.62,62.84c0.02,14.4,4.9,27.65,13.07,38.22
						C897.37,303.28,894.32,292.61,894.3,281.23z"/>
				</g>
			</g>
			<g>
				<path class="st24" d="M958.69,228.74l0.02,9.05c3.63,0.58,6.61,1.78,8.92,3.59c2.31,1.81,4.52,4.6,6.62,8.35l-9,5.05
					c-2.72-4.92-6.26-7.38-10.64-7.37c-2.71,0-4.96,0.81-6.74,2.41c-1.78,1.6-2.67,3.61-2.67,6.01c0,2.19,0.73,4,2.18,5.45
					c1.42,1.41,4.29,3.09,8.6,5.02c3.73,1.69,6.81,3.28,9.25,4.76c2.43,1.49,4.27,2.93,5.5,4.31c3.49,3.75,5.23,8.29,5.24,13.62
					c0.01,5.24-1.55,9.86-4.69,13.87c-3.1,3.98-7.26,6.66-12.46,8.06l0.02,9.56l-8.08,0.01l-0.02-9.28
					c-6.04-0.98-10.65-3.05-13.82-6.21c-3.18-3.17-5.53-8.06-7.05-14.68l10.16-2.14c1.39,4.68,3.09,8.02,5.1,10.01
					c2.1,1.91,4.89,2.86,8.37,2.85c3.39-0.01,6.22-1.1,8.49-3.29c2.24-2.16,3.36-4.95,3.36-8.37c-0.01-3.05-0.95-5.5-2.83-7.34
					c-0.96-0.89-2.37-1.9-4.23-3.02c-1.87-1.12-4.25-2.34-7.14-3.66c-5.98-2.67-9.91-5.13-11.79-7.37
					c-2.99-3.35-4.49-7.37-4.5-12.05c0-2.22,0.35-4.28,1.05-6.19c0.71-1.91,1.73-3.64,3.06-5.2c1.34-1.56,2.99-2.91,4.96-4.05
					c1.97-1.14,4.2-2.04,6.69-2.69l-0.02-9.05L958.69,228.74z"/>
			</g>
		</g>
		<g>
			<g>
				<path class="st15" d="M303.25,432.72c-4.33-9.59-11.87-16.79-21.17-20.39c0.05-1.36,0.08-2.72,0.08-4.06
					c0-14.02-2.75-27.63-8.17-40.45c-5.23-12.37-12.72-23.48-22.26-33.02c-9.54-9.54-20.65-17.03-33.02-22.26
					c-12.82-5.42-26.42-8.17-40.45-8.17c-14.02,0-27.63,2.75-40.45,8.17c-12.37,5.23-23.49,12.72-33.02,22.26
					c-9.54,9.54-17.03,20.65-22.26,33.02c-5.42,12.82-8.17,26.42-8.17,40.45c0,14.02,2.75,27.63,8.17,40.45
					c5.23,12.37,12.72,23.48,22.26,33.02c9.54,9.54,20.65,17.03,33.02,22.26c12.82,5.42,26.42,8.17,40.45,8.17
					c14.02,0,27.63-2.75,40.45-8.17c0.56-0.24,1.13-0.48,1.69-0.74l4.7,3.72c4.56,3.61,9.08,7.06,11.36,8.79
					c1.6,1.21,2.95,2.22,3.91,2.93c0.66,0.49,1.24,0.92,1.78,1.27c0.54,0.38,1.92,1.25,3.96,1.26c0.01,0,0.02,0,0.03,0
					c0.45,0,0.84-0.02,1.21-0.07l0.56,0l0.42-0.25c1.13-0.43,2.4-1.36,5.07-3.32c0.62-0.45,1.53-1.13,2.66-1.97l1.07-0.8
					c1.14-0.85,2.44-1.82,3.84-2.89c5.34-4.04,12.56-9.62,16.68-13.29c10.97-9.77,18.95-19.23,24.4-28.91
					C308.28,458.68,308.72,444.85,303.25,432.72z"/>
			</g>
			<g>
				<g>
					<g>
						<g>
							<g>
								<g>
									<g>
										<path class="st25" d="M179.02,505.3c-13.1,0-25.81-2.57-37.77-7.63c-11.56-4.89-21.93-11.88-30.84-20.79
											c-8.91-8.91-15.91-19.29-20.79-30.84c-5.06-11.97-7.63-24.67-7.63-37.77c0-13.1,2.57-25.81,7.63-37.77
											c4.89-11.56,11.88-21.93,20.79-30.84c8.91-8.91,19.29-15.91,30.84-20.79c11.97-5.06,24.67-7.63,37.77-7.63
											c13.1,0,25.81,2.57,37.77,7.63c11.56,4.89,21.93,11.88,30.84,20.79c8.91,8.91,15.91,19.29,20.79,30.84
											c5.06,11.97,7.63,24.67,7.63,37.77c0,13.1-2.57,25.81-7.63,37.77c-4.89,11.56-11.88,21.93-20.79,30.84
											c-8.91,8.91-19.29,15.91-30.84,20.79C204.83,502.74,192.12,505.3,179.02,505.3z M179.02,321
											c-23.31,0-45.23,9.08-61.71,25.56c-16.48,16.48-25.56,38.4-25.56,61.71c0,23.31,9.08,45.23,25.56,61.71
											c16.48,16.48,38.4,25.56,61.71,25.56s45.23-9.08,61.71-25.56c16.48-16.48,25.56-38.4,25.56-61.71
											c0-23.31-9.08-45.23-25.56-61.71C224.25,330.08,202.33,321,179.02,321z"/>
									</g>
									<g>
										<rect x="174.14" y="316.12" class="st25" width="9.77" height="184.3"/>
									</g>
								</g>
								<g>
									<rect x="92.25" y="373.26" class="st25" width="175.1" height="9.77"/>
								</g>
								<g>
									<rect x="89.37" y="429.18" class="st25" width="178.15" height="9.77"/>
								</g>
								<g>
									<path class="st25" d="M174.71,504.29c-0.54-0.38-13.39-9.39-26.33-26.05c-7.61-9.8-13.68-20.23-18.04-31.01
										c-5.47-13.54-8.25-27.65-8.25-41.94c0-14.32,2.79-28.15,8.28-41.09c4.39-10.33,10.49-20.1,18.15-29.06
										c13.03-15.23,25.99-22.79,26.53-23.1l4.88,8.46c-0.12,0.07-12.27,7.2-24.22,21.26c-6.95,8.18-12.48,17.08-16.44,26.46
										c-4.92,11.67-7.42,24.14-7.42,37.07c0,13.03,2.54,25.91,7.54,38.28c4.02,9.95,9.64,19.6,16.7,28.68
										c12.03,15.49,24.07,23.94,24.19,24.02L174.71,504.29z"/>
								</g>
								<g>
									<path class="st25" d="M184.63,504.29l-5.58-8.02c0.12-0.09,12.36-8.71,24.39-24.28c7.01-9.07,12.58-18.7,16.57-28.61
										c4.95-12.31,7.47-25.13,7.47-38.1c0-13-2.53-25.54-7.51-37.27c-4-9.41-9.57-18.33-16.58-26.53
										c-11.95-13.97-23.87-20.92-23.99-20.99l4.88-8.46c0.55,0.31,13.51,7.87,26.53,23.1c7.66,8.95,13.76,18.73,18.15,29.06
										c5.5,12.94,8.28,26.77,8.28,41.09c0,14.29-2.78,28.41-8.25,41.94c-4.36,10.78-10.43,21.22-18.04,31.01
										C198.02,494.9,185.17,503.91,184.63,504.29z"/>
								</g>
							</g>
						</g>
					</g>
				</g>
				<g>
					<g>
						<g>
							<path class="st26" d="M271.62,416.72c-9.47-0.83-21.42,4.25-24.3,12.46c-2.8-8.23-17.31-13.35-26.79-12.61
								c-25.01,1.95-33.62,30.23-23.11,49.33c5.65,10.28,13.81,19.28,22.71,27.37c7.46,6.77,26.7,21.16,26.76,21.11
								c0.06,0.05,19.45-14.15,26.97-20.86c8.99-8.01,17.23-16.93,22.99-27.15C307.54,447.35,296.61,418.9,271.62,416.72z"/>
						</g>
						<g class="st21">
							<path class="st22" d="M291.43,468.31c-6.27,7.62-13.52,14.76-21.38,20.89c-7.6,5.93-16.51,11.08-26.28,12.77
								c-4.7,0.81-9.29,0.67-13.63-0.36c7.94,6.29,16.58,12.72,16.62,12.69c0.06,0.05,19.45-14.15,26.97-20.86
								c8.99-8.01,17.23-16.93,22.99-27.15c1.86-3.31,3.07-6.9,3.66-10.6C297.75,460.11,294.72,464.32,291.43,468.31z"/>
						</g>
					</g>
				</g>
			</g>
		</g>
		<g>
			<g>
				<path class="st3" d="M81.16,433.27c0.9,3.58,7.16,11.1,11.09,11.67c9.09,1.33,1.96-8.47,0.26-12.42
					c1.56-0.18,3.07-0.3,4.54-0.77c1.34-0.43-7.3-10.49-9.03-11.05c-4.15-1.34-5.78,0.9-9.36,2.84
					C79.57,426.76,80.34,430.03,81.16,433.27z"/>
			</g>
			<polygon class="st4" points="122.03,263.69 42.91,363.96 77.39,427.82 93.35,423.51 76.27,369.71 98.05,341.65 141.5,307.88 			
				"/>
		</g>
		<path class="st10" d="M131.1,270.96c3.69-1.16,7.33-2.43,10.12-5.66c4.51-5.21,5.62-14.8,7.64-21.18
			c2.12-6.73,4.65-14.01,10.6-17.79c3.89-2.47,7.88-2.4,12.23-1.75c2.98,0.45,2.91,1.59,5.69,0.42c2.13-0.9,4.39-4.28,5.19-6.34
			c1.35-3.48,0.54-7.52-1.37-10.73c-2.94-4.93-6.93-7.8-12.43-8.85c-19.31-3.67-35.78,5.4-44.41,23.42
			c-4.15,8.66-3.9,19.12-8.16,27.42c-2.63,5.12-6.7,8.14-9.07,13.67c-6.14,14.34-17.59,32.07-19.54,47.63
			c-0.07,0.58-0.11,1.22,0.25,1.67c0.74,0.92,2.21,0.2,3.12-0.56c5.3-4.42,10.6-8.83,15.9-13.25c2.08-1.73,4.19-3.5,5.71-5.74
			c3.79-5.58,3.66-13.64,8.84-17.96C124.24,273.02,127.69,272.04,131.1,270.96z"/>
		<polygon class="st3" points="328.32,416.31 342.49,424.44 346.23,418.53 337.76,410.82 340.82,408.84 327.85,403.36 
			323.13,408.98 		"/>
	</g>
</g>
</svg>
