<?xml version="1.0" encoding="utf-8"?>
<!-- Generator: Adobe Illustrator 24.0.0, SVG Export Plug-In . SVG Version: 6.00 Build 0)  -->
<svg version="1.1" id="_x3C_Layer_x3E_" xmlns="http://www.w3.org/2000/svg" xmlns:xlink="http://www.w3.org/1999/xlink" x="0px"
	 y="0px" viewBox="0 0 1229.79 1051.06" style="enable-background:new 0 0 1229.79 1051.06;" xml:space="preserve">
<style type="text/css">
	.st0{fill:#ECE4FA;}
	.st1{fill:#603E6B;}
	.st2{fill:#FC7575;}
	.st3{fill:#0E5466;}
	.st4{fill:#96789E;}
	.st5{fill:#1E3340;}
	.st6{fill:#42858C;}
	.st7{fill:#FD5E5A;}
	.st8{fill:#0B1742;}
	.st9{fill:#2846A6;}
	.st10{fill:#2E98A0;}
	.st11{fill:#0F1D5B;}
	.st12{fill:#D3C4BA;}
	.st13{fill:#1A2A63;}
	.st14{fill:#D24307;}
	.st15{fill:#5CD4ED;}
	.st16{fill:#42AEBC;}
	.st17{fill:#9DE5F4;}
	.st18{fill:#F98A8A;}
	.st19{fill:#EA7373;}
	.st20{fill:#D86666;}
	.st21{fill:#E3E4FF;}
	.st22{fill:#C5C6FE;}
	.st23{fill:#18287D;}
	.st24{fill:#764BCB;}
	.st25{fill:#5D21D2;}
	.st26{fill:#FFFFFF;}
</style>
<g>
	<path class="st0" d="M850.38,617.27c88.88-47.2,144.84-115.9,144.84-192.4c0-142.33-193.76-257.7-432.77-257.7
		c-239.01,0-432.76,115.38-432.76,257.7c0,117.45,131.95,216.56,312.4,247.6c-27.57,19.4-43.35,41.92-43.35,65.95
		c0,72.82,144.95,131.85,323.76,131.85s323.76-59.03,323.76-131.85C1046.25,684.11,965.58,637.46,850.38,617.27z"/>
	<path class="st1" d="M716.87,765.09H574.79c-18.81,0-34.2-15.39-34.2-34.2v-90.8c0-18.81,15.39-34.2,34.2-34.2h142.07
		c18.81,0,34.2,15.39,34.2,34.2v90.79C751.07,749.7,735.68,765.09,716.87,765.09z"/>
	<path class="st1" d="M571.89,628c0.64-1.17,50.15-92.28,46.89-86.47c5.22-9.53,9.06-19.65,19.26-23.57
		c3.56-1.38,7.79-1.52,11.45-0.28c7.44,2.44,11.58,8.55,14.82,14.73l-0.06-0.12l55.28,93.12l-2.8,1.4
		c-49.63-58.5-63.94-101.23-74.02-98.36c-5.52,1.97-8.6,10.06-13.28,17.88l-10.03,17.11c-29.66,48.74-44.36,65.65-44.13,65.35
		c-0.23,0.29-0.75,0.9-1.12,1.28L571.89,628z"/>
	<path class="st2" d="M637.97,498.1c-1.57,4.58-6.31,18.76-9.06,27.01c-1.1,3.28,0.07,6.85,2.95,9.05c0.14,0.11,0.26,0.21,0.36,0.3
		c1.23,1.13,3.9,4.83,5.14,4.83c1.23,0,4.31,2.4,6.05,2.4c1.74,0,2.79,0.3,5.46,1.21c2.67,0.91,7.4-2.23,7.4-3.62
		c0-1.39,1.23-10.29,2.67-17.83c1.44-7.54,1.36-24.27,1.36-24.27c0.85-0.78,2.08-2.06,3.6-3.72c-6.55-3.18-13.12-6.33-20.14-8.23
		C640.56,492.08,638.41,496.82,637.97,498.1z"/>
	<path class="st3" d="M749.12,319.91l-26.53-63.25c0,0-34.6,117.42-34.6,127.03c0,7.75-31.04,73.07-44.25,101.55
		c7.02,1.9,16.85,8.04,23.4,11.22c15.68-17.13,59.98-79.35,59.98-79.35L749.12,319.91z"/>
	<path class="st4" d="M955.3,868.32c-0.06,9.51-158.93,16.4-354.85,15.41c-195.92-1-354.7-9.51-354.64-19.01
		c0.06-9.51,158.93-16.4,354.85-15.41C796.58,850.3,955.36,858.82,955.3,868.32z"/>
	<g>
		<path class="st5" d="M806.42,853.45c-25.33,0-28.54-29.91-28.54-29.91l21.93-148.13l10.81-183.14l6.18-46.3l-103.98,9.26
			l-16.89,46.24l-24,170.55l39.12,148.13c0,0-3.21,29.91-28.54,29.91c-25.33,0-24.71,9.21-24.71,9.21h74.13
			c0,0-4.32-33.15-4.32-36.22c0-3.07-4.63-163-4.63-163l28.11-145.81l10.99,153.05c0,0-0.75,156.07-0.75,159.14
			c0,3.07-4.32,36.22-4.32,36.22s18.53,0,30.89,0c12.35,0,43.24,0,43.24,0S831.74,853.45,806.42,853.45z"/>
		<path class="st6" d="M821.24,245.24c-14.16-17.87-70.25-33.66-96.6-4.47c-22.91,25.38-27.85,99.22-29.36,163.53
			c-1.36,57.98-11.34,108.21-11.34,108.21l134.64,1.74l2.66-167.08C821.24,347.17,835.4,263.12,821.24,245.24z"/>
		<path class="st2" d="M745.09,199.38c0,0-0.37,26.39-3.21,39.83c-1.1,5.2,1.59,10.52,6.58,12.44c3.69,1.41,8.56,2.24,14.66,1.21
			c15.87-2.67,16.41-18.45,16.41-18.45l-5.35-48.13L745.09,199.38z"/>
		<path class="st7" d="M774.17,186.29l-29.09,13.09c0,0-0.14,9.74-0.88,20.4c7.59,0.33,17.13-3.48,27.25-14.96
			c1.51-1.71,2.91-3.4,4.22-5.07L774.17,186.29z"/>
		<path class="st2" d="M790.29,148.31c-3.5-8.83-35.25-21.13-43.32-16.58c0,0-9.95,7.49-14.26,20.06
			c-4.31,12.57-8.07,21.66-8.07,21.66l4.58,2.67c0,0-0.72,3.47-1.27,7.85c4.78,0.58,12.18,1.02,17.59-0.74c0,0-6.33,4.79-18.01,4.7
			c-0.37,4.5-0.34,9.17,0.87,11.72c4.31,9.09,22.47,16.45,43.05-4.01C792.04,175.18,793.79,157.13,790.29,148.31z"/>
		<path class="st8" d="M777.91,151.52c0,0-9.15-7.49-22.33-4.28c-13.19,3.21-17.63-1.74-15.07-4.28c0,0-11.57,0.27-15.88-9.09
			c-4.3-9.36-3.23-37.7,17.22-32.36c20.45,5.35,16.32,18.18,16.32,18.18s6.55-6.15,12.74-2.94c6.19,3.21,5.38,7.76,5.38,7.76
			s5.65,10.43,13.45,11.77c7.8,1.34,6.99,16.85,6.99,16.85s4.58,3.21,1.35,14.44c-3.23,11.23-22.22,28.61-22.22,33.96
			c0,0-4.68-6.95-0.91-17.92c3.77-10.96,3.77-17.38-0.27-17.38S777.91,151.52,777.91,151.52z"/>
		<path class="st2" d="M772.09,173.48c0,0,1.31-9.22,4.24-9.22c2.93,0,5.65,1,4.94,6.22c-0.71,5.21-3.73,11.03-7.57,8.62
			C769.87,176.69,772.09,173.48,772.09,173.48z"/>
		<path class="st8" d="M799.5,133.95c-0.33-0.96-1.16-1.97-2.19-2.41c-3.34-1.41-7.8,1.63-10.74,3.73l-0.5-0.59
			c1.98-2.03,4.08-4.06,7.02-5.36c4.32-1.81,8.18,0.04,9.81,3.48L799.5,133.95z"/>
		<path class="st8" d="M796.82,148.83c0.32-1.63,0.32-3.54-0.12-5.23c-2.13-8.46-12.5-7.72-13-7.97v-0.53
			c0.29,0.1,15-2.73,17.1,10.93c0.19,1.19,0.28,2.19,0.16,3.63L796.82,148.83z"/>
		<path class="st9" d="M744.63,159.8c0,2.27-1.01,4.11-2.25,4.11s-2.25-1.84-2.25-4.11c0-2.27,1.01-4.11,2.25-4.11
			S744.63,157.53,744.63,159.8z"/>
		<g>
			<path class="st9" d="M750.23,153.17c-4.12-2.48-9.92-1.57-9.98-1.56l-0.26-1.58c0.26-0.05,6.44-1.02,11.08,1.77L750.23,153.17z"
				/>
		</g>
		<path class="st7" d="M774.03,169.76c0,0,1.71-3.13,3.23-2.68c1.53,0.45,1.87,6.73-0.84,9.37
			C773.71,179.09,771.42,174.76,774.03,169.76z"/>
	</g>
	<path class="st10" d="M455.82,318.39c0,0,61.64,17.92,65.34,50.08l-16.44,4.88l-56.86-32.46L455.82,318.39z"/>
	<path class="st11" d="M388.07,537.76c0,0,35.55,280,44.44,309.88v18.88h68.18c0,0-4.12-6.29-11.82-6.29
		c-7.7,0-27.18-6.82-32.51-11.54c-5.33-4.72,3.36-391.68,3.36-391.68h-84.68L388.07,537.76z"/>
	<polygon class="st12" points="378.05,219.43 376.42,242.82 436.9,236.52 422.77,220.65 	"/>
	<path class="st13" d="M427.67,481.28l-9.84,45.3c0,0-78.7,245.35-75.25,331.09c0,0,6.63,10.16,30,16.18
		c1.26,0.32,2.46,4.31,2.46,4.31h-60.99l3.44-17.26c0,0,1.97-291.72,1.97-325.7c0-33.97,9.84-78.19,9.84-78.19H431.6L427.67,481.28z
		"/>
	<path class="st14" d="M468.57,398.93c0-79.37-25.29-158.32-44.21-168.37c0,0-21.99-1.39-33.3-1.74
		c-16.87-0.52-42.85,7.29-56.86,51.07c-8.83,27.6-4.66,94.22-3.71,152.27c0.42,25.74-3.85,49.79-3.25,68.02
		c47.67,0,82.54-1.45,128.79-1.45C456.75,484.89,468.57,423.88,468.57,398.93z"/>
	<path class="st15" d="M401.42,324.53c0.13,1.18-28.12-93.38-28.12-93.38s-9.48,2.95-22.07,10.58
		c-12.59,7.64-29.99,60.35-29.99,60.35s4.27,124.69,4.27,134.17c0,5.1-9.05,81.46-17.42,150.96l103.13,8.96
		C409.67,499.23,401.42,324.53,401.42,324.53z"/>
	<path class="st16" d="M424.36,230.56c0,0,36.38,12.99,44.21,100.23c7.83,87.25,7.83,265.38,7.83,265.38h-35.64
		c0,0-3.86-254.47-3.86-271.92C436.9,306.8,424.36,230.56,424.36,230.56z"/>
	<polygon class="st17" points="422.77,220.65 436.84,322.04 441.84,271.34 436.9,265.84 436.9,236.52 	"/>
	<path class="st17" d="M358.67,545.79h8.72c12.49,0,22.62-10.13,22.62-22.62v-35.68h-53.97v35.68
		C336.04,535.66,346.17,545.79,358.67,545.79z"/>
	
		<rect x="321.97" y="417.32" transform="matrix(-1 -1.224647e-16 1.224647e-16 -1 658.0118 862.9761)" class="st17" width="14.07" height="28.33"/>
	<path class="st2" d="M361.07,330.5c-0.03-0.02-0.05-0.05-0.07-0.07C361.64,330.39,361.6,330.42,361.07,330.5z"/>
	<polygon class="st5" points="507.86,382.06 597.74,323.2 504.42,315.43 433.86,383.68 	"/>
	<path class="st2" d="M469.35,355.2c0,0-10.98,2.25-15.05,6.24c-5.18,5.09-17.48,13.36-22.65,13.36c-5.17,0-27.18,1.97-27.18,1.97
		l-3.69,22.21c0,0,82.13-17.25,86-21.04c3.87-3.8-19.26,2.82-19.26,1.13c0-1.69,27.86-3.59,26.42-7.86
		c-1.44-4.27-25.71,5.74-27.86,3.63c-2.15-2.12,29.29-5.64,29.29-10.15c0-4.51-31.3,6.52-31.3,6.52s-0.57-2.29,7.9-5.96
		c8.47-3.67,16.69-6.62,14.81-8.46c-1.88-1.84-23.54,9.84-26.39,7.03L469.35,355.2z"/>
	<path class="st17" d="M359.73,250.15c0,0,10.4,17.45,8.33,42.58c-2.08,25.13-5.62,63.67,0.2,76.24c5.83,12.57,48.5,0,48.5,0v29.74
		c0,0-61.87,23.04-79.8,15.5c-17.92-7.54-16.22-72.47-16.22-104.31C320.75,278.06,348.3,227.3,359.73,250.15z"/>
	<g>
		<path class="st18" d="M395.04,138.56c-0.05-11.89,12.91-18.75,25.2-18.3c12.05,0.44,23.82,0.58,27.98,7.72
			c10.05,17.22-5.48,49.46-5.48,49.46s-8.22,15.02-24.67,15.02C406.82,192.46,395.14,160.8,395.04,138.56z"/>
		<path class="st19" d="M383.36,171.79c0,0-4.44,54.66-2.84,66.14c1.6,11.48,34.36,14.35,40.75,5.52c6.4-8.83,0-46.59,0-46.59
			L383.36,171.79z"/>
		<path class="st20" d="M423.87,219.77c-0.69-11.65-2.6-22.9-2.6-22.9l-37.91-25.08c0,0-1.38,15.39-2.22,32.09
			c0.75-0.36,1.72-0.81,2.22-1.33c4.34-4.6,9.36-20.56,9.36-20.56s2.31,16.2,2.31,25.15c0,5.7,10.66,9.47,21.11,11.46
			c1.67-2.19,2.95-4.96,3.73-7.32c-0.27,2.57-0.86,5.25-1.86,7.66C420.03,219.29,422,219.56,423.87,219.77z"/>
		<path class="st21" d="M438.52,199.3c0.98,2.14,2.81,5.09,4.98,6.98c3.73-4.29,5.92-10.16,5.92-14.93c0-8.61-5.53-13.28-5.53-16.46
			c0,0-1.94,7.3-12.44,8.84c-10.51,1.55-18.95-6.18-22.95-10.05c-4-3.86-9.14-7.58-9.14-13.91c0-6.33-0.74-31.08-0.74-31.08
			s-1.09-4.25-12.51,1.27c-11.42,5.52-10.05,9.71-11.88,18.1c-1.83,8.39,0.68,14.57-6.4,16.78c-7.08,2.21-14.84,12.36-9.36,23.18
			c5.48,10.82,20.55,12.14,24.89,7.95c4.34-4.19,9.36-16.99,9.36-16.99s2.31,13.02,2.31,21.19c0,5.21,10.66,8.65,21.11,10.46
			c1.67-2,2.95-4.53,3.73-6.68c-0.27,2.35-0.86,4.8-1.86,6.99c5.29,0.82,10.35,1.23,13.76,1.23c3.21,0,6.11-1.14,8.58-2.97
			C438.92,206.27,438.4,202.75,438.52,199.3z"/>
		<path class="st22" d="M385,129.56c-10.51,4.57-10.55,9.67-12.09,17.1c-2.5,10.76,0.49,14.67-6.33,16.77
			c-15.44,6.21-15.99,29.19,2.71,34.54c4.68,1.13,10.43,1.39,14.07-1.98c-4.05,2.65-9.3,1.88-13.51,0.34
			c-15.35-5.67-14.79-24.88-1.97-29.6c8.9-2.23,6.21-10.13,8.12-19.5c1.38-6.95,0.02-10.86,9.82-16.14
			c3.45-1.96,10.55-5.62,12.79-2.39C396.82,124.89,388.94,127.87,385,129.56z"/>
		<path class="st18" d="M404.38,152.27c0,0-3.37-4.42-9.34-3.09c-5.97,1.32-1.38,16.12,3.85,16.12
			C404.13,165.3,404.38,152.27,404.38,152.27z"/>
		<path class="st23" d="M438.4,148.93c-0.07,17.21-0.9,15.44-1.9,23.82c-1.93-0.39-3.9-0.66-5.86-0.96c6.56,2.5,5.79,2.07,6.85,2.44
			C437.76,171.22,441.94,163,438.4,148.93z"/>
		<path class="st21" d="M420.7,146.2c0,0,2.74-1.1,7.42,0c4.68,1.1,6.17,1.77,6.17,1.77s0.57-4.64-2.4-4.64c-2.97,0-3.88,2.1-6.05,0
			C423.67,141.23,420.7,146.2,420.7,146.2z"/>
		<path class="st21" d="M452.46,145.73c0,0-2.07-1.04-5.49,0.18c-3.43,1.22-4.5,1.92-4.5,1.92s-0.59-4.62,1.61-4.69
			c2.2-0.07,2.95,2,4.48-0.15C450.09,140.84,452.46,145.73,452.46,145.73z"/>
		<path class="st23" d="M428.58,150.38c0,1.41-1,2.55-2.23,2.55c-1.23,0-2.23-1.14-2.23-2.55c0-1.41,1-2.55,2.23-2.55
			C427.58,147.83,428.58,148.97,428.58,150.38z"/>
		<path class="st23" d="M448.68,151.48c0,1.41-1,2.55-2.23,2.55c-1.23,0-2.23-1.14-2.23-2.55c0-1.41,1-2.55,2.23-2.55
			C447.68,148.93,448.68,150.08,448.68,151.48z"/>
		<path class="st20" d="M399.48,153.28c0,0-3.65-3.02-4.45-0.35c-0.8,2.67,1.09,8.3,3.67,8.65
			C401.29,161.92,399.48,153.28,399.48,153.28z"/>
		<path class="st23" d="M436.12,179.76c-3.73,3.47-10.93,3.05-17.19-3.23c-0.78-0.78,0.32-1.98,1.21-1.31
			C421.69,175.75,426.2,182.25,436.12,179.76z"/>
	</g>
	<polygon class="st17" points="401.42,324.53 378.05,219.43 353.89,236.64 375.03,272.63 373.46,283.9 	"/>
	<path class="st2" d="M499.33,384.39c0,0,1.47,1.36,5.95,3.9c4.34,2.47,8.7-1.4,9.62-2.15c1.75-1.42,4.12-4.12,5.31-5.85
		c1.19-1.73,1.78-2.88,2.2-4.68c0.62-2.65-10.2-10.8-11.21-10.13c-0.68,0.45-1.21,1.05-0.98,1.73c0.24,0.72,6.19,8.67,6.19,8.67
		s-8.53-7.75-11.03-7.5c-2.5,0.25-2.17,1.64-1.53,2.3c0.64,0.65,8.69,10,8.69,10s-10.16-7.16-11.79-7c-1.63,0.16-2.75,2.1,1.35,5.28
		c2.3,1.78,6.06,6.05,6.06,6.05s-7.65-4.38-10.1-4.14C495.62,381.11,499.33,384.39,499.33,384.39z"/>
	<path class="st3" d="M805.87,233.87c0,0-19.79,10.47-19.79,41.03c0,30.56,121.25,151.84,121.25,151.84v-49.65
		C907.33,377.09,843.33,250.27,805.87,233.87z"/>
	<g>
		<path class="st2" d="M813.44,870.14c0,0,5.33-4.99,15.52-8.06c10.18-3.08,24.13-4.65,24.75-10.93
			c5.48-56.08-20.75-193.4-20.75-193.4l22.64-110.34l46.69,34.92l-29.71,83.1c0,0,19.1,29.33,14.86,49.58
			c-4.25,20.25-18.62,138.12-18.62,138.12s7.35,10.34,3.01,15.25L813.44,870.14z"/>
		<path class="st23" d="M828.96,862.07c2.17-0.66,4.52-1.25,6.87-1.83c6.5,1.15,11.53,2.27,11.53,2.27
			c5.71-3.48,15.01-5.85,22.75-7.34c1.89,3.27,4.86,9.66,1.72,13.2l-58.38,1.76C813.44,870.14,818.77,865.15,828.96,862.07z"/>
		<path class="st23" d="M895.74,209.52c0,0,19.94,0.77,13.91,16.3c-6.03,15.53-9.84,16.2-9.84,16.2s17.05-1.99,17.05,11.28
			c0,13.26-8.23,20.56-8.23,20.56s-13.71,20.78,1.02,26.81c14.73,6.02,23.33-5.25,23.33-5.25s2.33,5.47-2.86,10.28
			c-5.19,4.81-15.49,0-15.49,0s9.41,12.28,16.92,10.45l-3.4,8.78c0,0-10.03,1.82-16.47-5.8c-2.11-2.49-3.58-7.13-3.58-7.13
			l6.62,14.09l-13.07-3.48c-3.22-4.14,1.08-21.6-1.43-29.73c-2.51-8.12,1.43-16.03,1.43-19.19s-29.36-6.47-30.43-21.39
			S874.44,201.72,895.74,209.52z"/>
		<path class="st2" d="M788.6,864.84c0,0,5.34-4.99,15.51-8.07c10.18-3.08,24.14-4.65,24.75-10.93
			c5.48-56.08-20.75-193.4-20.75-193.4l22.64-110.34l46.69,34.92l-29.71,83.1c0,0,19.1,29.33,14.86,49.58
			c-4.25,20.25-18.62,138.12-18.62,138.12s7.35,10.34,3.01,15.25L788.6,864.84z"/>
		<path class="st24" d="M886.98,244.71c0,0,23.63,11.21,17.97,58c-5.66,46.79-5.36,97.99,1.04,112.92
			c27.33,63.67,2.13,333.39,2.13,333.39c-35.05,3.61-141.07,2.48-141.07,2.48s-53.79-307.63,26.29-367.2
			c20.45-15.21,2.52-83.44,38.28-116.22C862.75,239.54,886.98,244.71,886.98,244.71z"/>
		<path class="st25" d="M811.53,392.45c-1.4-1.13-2.75-2.3-4.04-3.52c-2.67,1.36-13.21,7.38-16.69,19.44
			c-0.11,0.4-0.5,0.66-0.93,0.66c-0.63,0-1.09-0.55-0.93-1.1c3.56-12.29,13.72-18.51,17.19-20.32c-2.52-2.53-4.78-5.25-6.65-8.2
			c5.14,5.22,11.04,9.6,17.26,13.46c25.54,15.59,47.78,16.74,63.82,19.09c-10.42,0.61-20.5,0.61-32.42-2.23v0
			c-31.05,38.62-16.53,107.01-16.53,113.29c0,1.17-1.92,1.16-1.92,0c0-6.04-14.61-74.3,16.45-113.76c-0.19-0.07-9.3-2.13-18.79-6.78
			c-28.01,36.19-24.86,69.12-24.82,69.45c0.12,1.16-1.79,1.33-1.91,0.17c-0.04-0.34-3.27-33.78,25.04-70.48
			c-4.77-2.46-8.86-5.09-12.67-8.02c-13.54,12.47-26.67,36.26-25.53,61.44c0.02,0.48-0.39,0.9-0.92,0.92h-0.04
			c-0.51,0-0.94-0.37-0.96-0.84C784.38,429.47,797.73,405.21,811.53,392.45z"/>
		<g>
			<g>
				<path class="st2" d="M856.61,250.77c4.8-18.46,0.79-51.19,0.79-51.19l24.69-7.96c0,0,7.09,54.76,6.11,54.75
					C879.89,258.5,855.46,259.81,856.61,250.77z"/>
				<path class="st23" d="M827.98,154.03c0,0,18.74,21.75,26.45,24.43c7.7,2.69,24.93,6.87,24.93,6.87s7.06,32.01,6.78,38.97
					c0,0,30.89-5.26,18.11-53.91c-4.87-18.54-6.97-30.32-27.37-38.31C856.49,124.11,834.7,136.19,827.98,154.03z"/>
				<path class="st2" d="M843.29,148.01c0,0-13.3,4.16-14.57,13.61c-1.27,9.46,1.2,14.18,0.58,18.75
					c-0.61,4.56-0.04,13.08,5.89,26.18c5.93,13.1,26.07,5.69,37.61-3.71c12.99-10.57,14.2-13.8,14.17-30.85
					C886.94,154.93,864.55,140.84,843.29,148.01z"/>
				<path class="st9" d="M842.7,192.4c0.23-1.45-1.94,0.26-5.58-4.39c1.43-2.06,2.22-4.61,2.37-6.88c-1.28,4.59-3.91,6.41-4.25,6.82
					c0.14,0.13,2.94,4.51,6.59,5.04l0.01,0C842.26,193.05,842.64,192.79,842.7,192.4z"/>
				<path class="st9" d="M851.18,181.73c-0.96,0.69-2.34,0.53-3.08-0.36c-0.75-0.89-0.57-2.16,0.39-2.86
					c0.96-0.69,2.34-0.53,3.08,0.36C852.31,179.77,852.13,181.04,851.18,181.73z"/>
				<path class="st9" d="M832.97,181.17c-0.96,0.69-2.34,0.53-3.08-0.36c-0.75-0.89-0.57-2.16,0.38-2.85
					c0.96-0.69,2.34-0.53,3.08,0.36C834.1,179.2,833.93,180.48,832.97,181.17z"/>
				<path class="st11" d="M843.29,176.77c2.5-0.22,5.01,0.02,7.46,0.71c1.25,0.39,2.33,0.87,3.42,1.38
					c1.09,0.52,2.17,1.06,3.21,1.76c-1.29-0.01-2.52-0.29-3.71-0.62c-1.2-0.32-2.33-0.88-3.4-1.24
					C848.05,177.99,845.67,177.45,843.29,176.77z"/>
				<path class="st11" d="M826.78,176.43c1.84-0.06,3.72,0.23,5.57,0.87c0.95,0.35,1.77,0.76,2.6,1.2c0.83,0.44,1.66,0.9,2.47,1.48
					c-0.96-0.07-1.88-0.33-2.78-0.64c-0.91-0.3-1.77-0.77-2.58-1.1C830.37,177.57,828.58,177.06,826.78,176.43z"/>
				<path class="st11" d="M843.33,170.64l1.03,2.5c0,0,6.64-0.37,9.52,2.12C853.88,175.26,848.9,169.13,843.33,170.64z"/>
				<path class="st11" d="M828.57,169.76l0.44,2.34c0,0,6.64-0.37,9.52,2.12C838.53,174.22,834.14,168.25,828.57,169.76z"/>
				<path class="st26" d="M837.28,199.01c0,0,7.56-0.72,13.89-2.95c0,0-5.79,8.6-9.35,8.19
					C838.26,203.84,837.28,199.01,837.28,199.01z"/>
				<path class="st9" d="M830.61,139.18c0,0-10.55,1.57-9.26,10.97c1.29,9.4,26.58,20.78,43.92,18.89c6.5-0.71,6.37,2.85,8.85,5.18
					c4.13,3.88,7.66,8.64,3.74,15.98c-6.28,11.74-11.75,5.5-11.75,5.5s4.88,7.17,20.13,3.42c15.26-3.75,17.81-24.42,6.91-36.58
					c-10.91-12.16-22.37-17.93-31.7-20.96C841.2,135.02,830.61,139.18,830.61,139.18z"/>
				<path class="st2" d="M879.87,171.55c-1.77,0-9.54,4.75-7.63,9.85c1.91,5.1,3.88,5.5,8.86,3.21
					C886.09,182.32,884.36,171.55,879.87,171.55z"/>
				<path class="st7" d="M874.6,178.15c0,0,3.87-4.25,5.7-2.08c1.83,2.17,1.09,5.84-1.58,6.98
					C876.04,184.2,871.99,180.68,874.6,178.15z"/>
			</g>
			<path class="st7" d="M862.96,188.33c0,2.31-3.21,4.17-7.18,4.17c-3.97,0-7.18-1.87-7.18-4.17s3.21-4.17,7.18-4.17
				C859.75,184.16,862.96,186.03,862.96,188.33z"/>
			<g>
				<path class="st7" d="M834.64,189.55c0-1.96-2.32-3.6-5.46-4.05c0.15,2.2,0.53,4.8,1.29,7.84
					C832.93,192.68,834.64,191.23,834.64,189.55z"/>
			</g>
		</g>
		<path class="st23" d="M804.11,856.78c2.17-0.66,4.52-1.25,6.87-1.83c6.5,1.15,11.53,2.27,11.53,2.27
			c5.71-3.47,15.01-5.85,22.75-7.34c1.89,3.27,4.86,9.66,1.72,13.2l-58.38,1.76C788.6,864.84,793.93,859.86,804.11,856.78z"/>
	</g>
	<path class="st2" d="M904.09,432.44c0,0,2.8-0.68,9.24-3.86c6.24-3.08,4.18-10.56,3.84-12.09c-0.65-2.92-2.55-7.39-4-9.9
		c-1.45-2.5-2.54-3.95-4.61-5.66c-3.05-2.51-21.22,3.77-21.05,5.34c0.12,1.06,0.54,2.06,1.58,2.28c1.11,0.24,15.65-0.83,15.65-0.83
		s-16.06,4.04-17.46,6.97c-1.41,2.93,0.65,3.53,1.95,3.27c1.3-0.26,19.11-2.66,19.11-2.66s-16.41,6.25-17.33,8.15
		c-0.92,1.91,0.86,4.48,7.86,2.17c3.93-1.3,9.93-2.15,9.93-2.15s-8.83,5.06-10.21,7.92C897.22,434.26,904.09,432.44,904.09,432.44z"
		/>
	<path class="st7" d="M888.29,269.4c0,0-19.73,9.02-11.49,31.19c8.24,22.17,13.41,67.74,11.49,80.89
		c-1.92,13.16-53.25,60.1-53.47,60.13c-3.19,0.43-15.37,3.96-23.28,6.74c-7.91,2.79-14.77,0.14-16.53,2.03
		c-1.42,1.52,2.84,4.54,7.83,3.12c4.89-1.4,13.12-3.64,12.85,1.3c-0.26,4.86-29.49,11.58-29.79,11.64
		c-2.86,0.62-7.88,2.42-5.41,3.89c1.5,0.53,10.95-1.19,16.49-2.86c9.63-2.91,12.72-3.72,13.93-3c0.18,1.14-5.99,3.13-19.5,7.93
		c-14.82,5.27-22.55,14.38,6.81,1.74c8.08-3.48,14.91-5.43,15.04-4.6c0.4,2.53-5.04,4.49-9.93,6.79c-4.76,2.23-15.06,7.65-9.6,8.62
		c1.24-0.04,7.47-3.5,12.02-6.03c9.84-5.48,12.72-6.87,14.27-6.26c0.69,4.36-10.87,9.09-16.06,12.53c-0.79,0.52-0.2,1.64,0.73,1.4
		c3.87-1,11.02-4.03,18.62-9.4c7.89-5.58,19.14-16.41,25.59-23.13c1.69-0.33,51.83-37.01,61.4-57.97
		C919.86,375.15,925.83,265.26,888.29,269.4z"/>
</g>
</svg>
